<?xml version="1.0" standalone="no" ?>
<!DOCTYPE svg PUBLIC "-//W3C//DTD SVG 1.1//EN" "http://www.w3.org/Graphics/SVG/1.1/DTD/svg11.dtd">
<svg width="122px" height="91px" viewBox="0 0 122 91" style="background-color: #ffffff00" xmlns="http://www.w3.org/2000/svg" xmlns:xlink="http://www.w3.org/1999/xlink" version="1.1" >
<text x="0" y="0" stroke="none" fill="#000000" transform="matrix(0.05 0 0 0.05 14.0699 52.369)" font-style="normal" font-weight="normal" font-size="200px" font-family="Arial" >
C</text>
<text x="0" y="0" stroke="none" fill="#000000" transform="matrix(0.05 0 0 0.05 14.0699 66.719)" font-style="normal" font-weight="normal" font-size="200px" font-family="Arial" >
C</text>
<text x="0" y="0" stroke="none" fill="#000000" transform="matrix(0.05 0 0 0.05 26.4974 73.894)" font-style="normal" font-weight="normal" font-size="200px" font-family="Arial" >
C</text>
<text x="0" y="0" stroke="none" fill="#000000" transform="matrix(0.05 0 0 0.05 38.9249 66.719)" font-style="normal" font-weight="normal" font-size="200px" font-family="Arial" >
C</text>
<text x="0" y="0" stroke="none" fill="#000000" transform="matrix(0.05 0 0 0.05 38.9249 52.369)" font-style="normal" font-weight="normal" font-size="200px" font-family="Arial" >
C</text>
<text x="0" y="0" stroke="none" fill="#000000" transform="matrix(0.05 0 0 0.05 26.4974 45.194)" font-style="normal" font-weight="normal" font-size="200px" font-family="Arial" >
C</text>
<path stroke="none" fill="#000000" transform="matrix(0.05 0 0 0.05 -84 -158)" d="M 2027.62,4243.95 L 2039.62,4243.95 L 2039.62,4317.95 L 2027.62,4317.95 L 2027.62,4243.95 Z " />
<path stroke="none" fill="#000000" transform="matrix(0.05 0 0 0.05 -84 -158)" d="M 2121.56,4480.45 L 2127.56,4470.06 L 2199.41,4511.54 L 2193.41,4521.94 L 2121.56,4480.45 Z " />
<path stroke="none" fill="#000000" transform="matrix(0.05 0 0 0.05 -84 -158)" d="M 2147.39,4435.71 L 2153.39,4425.32 L 2225.24,4466.8 L 2219.24,4477.2 L 2147.39,4435.71 Z " />
<path stroke="none" fill="#000000" transform="matrix(0.05 0 0 0.05 -84 -158)" d="M 2374.52,4519.86 L 2368.52,4509.47 L 2440.37,4467.98 L 2446.37,4478.37 L 2374.52,4519.86 Z " />
<path stroke="none" fill="#000000" transform="matrix(0.05 0 0 0.05 -84 -158)" d="M 2536.71,4317.95 L 2524.71,4317.95 L 2524.71,4243.95 L 2536.71,4243.95 L 2536.71,4317.95 Z " />
<path stroke="none" fill="#000000" transform="matrix(0.05 0 0 0.05 -84 -158)" d="M 2485.05,4317.95 L 2473.05,4317.95 L 2473.05,4243.95 L 2485.05,4243.95 L 2485.05,4317.95 Z " />
<path stroke="none" fill="#000000" transform="matrix(0.05 0 0 0.05 -84 -158)" d="M 2447.96,4081.04 L 2441.96,4091.44 L 2370.1,4049.95 L 2376.1,4039.56 L 2447.96,4081.04 Z " />
<path stroke="none" fill="#000000" transform="matrix(0.05 0 0 0.05 -84 -158)" d="M 2191.82,4037.48 L 2197.82,4047.87 L 2125.97,4089.36 L 2119.97,4078.97 L 2191.82,4037.48 Z " />
<path stroke="none" fill="#000000" transform="matrix(0.05 0 0 0.05 -84 -158)" d="M 2217.65,4082.22 L 2223.65,4092.61 L 2151.8,4134.1 L 2145.8,4123.7 L 2217.65,4082.22 Z " />
<text x="0" y="0" stroke="none" fill="#0000ff" transform="matrix(0.05 0 0 0.05 51.3523 45.194)" font-style="normal" font-weight="normal" font-size="200px" font-family="Arial" >
N</text>
<path stroke="none" fill="#000000" transform="matrix(0.05 0 0 0.05 -84 -158)" d="M 2623.07,4089.36 L 2617.07,4078.97 L 2674.14,4046.02 L 2680.14,4056.41 L 2623.07,4089.36 Z " />
<text x="0" y="0" stroke="none" fill="#0000ff" transform="matrix(0.05 0 0 0.05 63.7798 52.369)" font-style="normal" font-weight="normal" font-size="200px" font-family="Arial" >
N</text>
<path stroke="none" fill="#000000" transform="matrix(0.05 0 0 0.05 -84 -158)" d="M 2876.91,4055.56 L 2882.91,4045.16 L 2928.62,4071.55 L 2922.62,4081.94 L 2876.91,4055.56 Z " />
<path stroke="none" fill="#000000" transform="matrix(0.05 0 0 0.05 -84 -158)" d="M 2902.74,4010.82 L 2908.74,4000.43 L 2954.45,4026.81 L 2948.45,4037.2 L 2902.74,4010.82 Z " />
<text x="0" y="0" stroke="none" fill="#000000" transform="matrix(0.05 0 0 0.05 76.2073 45.194)" font-style="normal" font-weight="normal" font-size="200px" font-family="Arial" >
C</text>
<path stroke="none" fill="#000000" transform="matrix(0.05 0 0 0.05 -84 -158)" d="M 3131.53,4082.79 L 3125.53,4072.4 L 3186.02,4037.48 L 3192.02,4047.87 L 3131.53,4082.79 Z " />
<text x="0" y="0" stroke="none" fill="#000000" transform="matrix(0.05 0 0 0.05 88.6347 52.369)" font-style="normal" font-weight="normal" font-size="200px" font-family="Arial" >
C</text>
<text x="0" y="0" stroke="none" fill="#000000" transform="matrix(0.05 0 0 0.05 101.062 45.194)" font-style="normal" font-weight="normal" font-size="200px" font-family="Arial" >
C</text>
<text x="0" y="0" stroke="none" fill="#000000" transform="matrix(0.05 0 0 0.05 101.062 30.844)" font-style="normal" font-weight="normal" font-size="200px" font-family="Arial" >
C</text>
<text x="0" y="0" stroke="none" fill="#000000" transform="matrix(0.05 0 0 0.05 88.6347 23.669)" font-style="normal" font-weight="normal" font-size="200px" font-family="Arial" >
C</text>
<text x="0" y="0" stroke="none" fill="#000000" transform="matrix(0.05 0 0 0.05 76.2073 30.844)" font-style="normal" font-weight="normal" font-size="200px" font-family="Arial" >
C</text>
<path stroke="none" fill="#000000" transform="matrix(0.05 0 0 0.05 -84 -158)" d="M 3364.3,4049.95 L 3370.3,4039.56 L 3442.16,4081.04 L 3436.16,4091.44 L 3364.3,4049.95 Z " />
<path stroke="none" fill="#000000" transform="matrix(0.05 0 0 0.05 -84 -158)" d="M 3617.27,4089.36 L 3611.27,4078.97 L 3683.12,4037.48 L 3689.12,4047.87 L 3617.27,4089.36 Z " />
<path stroke="none" fill="#000000" transform="matrix(0.05 0 0 0.05 -84 -158)" d="M 3591.44,4044.62 L 3585.44,4034.23 L 3657.29,3992.74 L 3663.29,4003.13 L 3591.44,4044.62 Z " />
<path stroke="none" fill="#000000" transform="matrix(0.05 0 0 0.05 -84 -158)" d="M 3779.46,3887.45 L 3767.46,3887.45 L 3767.46,3813.45 L 3779.46,3813.45 L 3779.46,3887.45 Z " />
<path stroke="none" fill="#000000" transform="matrix(0.05 0 0 0.05 -84 -158)" d="M 3690.7,3650.54 L 3684.7,3660.94 L 3612.85,3619.45 L 3618.85,3609.06 L 3690.7,3650.54 Z " />
<path stroke="none" fill="#000000" transform="matrix(0.05 0 0 0.05 -84 -158)" d="M 3664.87,3695.28 L 3658.87,3705.67 L 3587.02,3664.19 L 3593.02,3653.8 L 3664.87,3695.28 Z " />
<path stroke="none" fill="#000000" transform="matrix(0.05 0 0 0.05 -84 -158)" d="M 3434.57,3606.98 L 3440.57,3617.37 L 3368.72,3658.86 L 3362.72,3648.47 L 3434.57,3606.98 Z " />
<path stroke="none" fill="#000000" transform="matrix(0.05 0 0 0.05 -84 -158)" d="M 3270.36,3813.45 L 3282.36,3813.45 L 3282.36,3887.45 L 3270.36,3887.45 L 3270.36,3813.45 Z " />
<path stroke="none" fill="#000000" transform="matrix(0.05 0 0 0.05 -84 -158)" d="M 3322.02,3813.45 L 3334.02,3813.45 L 3334.02,3887.45 L 3322.02,3887.45 L 3322.02,3813.45 Z " />
<text x="0" y="0" stroke="none" fill="#000000" transform="matrix(0.05 0 0 0.05 26.4974 30.7941)" font-style="normal" font-weight="normal" font-size="200px" font-family="Arial" >
H</text>
<path stroke="none" fill="#000000" transform="matrix(0.05 0 0 0.05 -84 -158)" d="M 2288.16,3887.45 L 2276.16,3887.45 L 2276.16,3807.67 L 2288.16,3807.67 L 2288.16,3887.45 Z " />
<text x="0" y="0" stroke="none" fill="#000000" transform="matrix(0.05 0 0 0.05 1.59918 45.1691)" font-style="normal" font-weight="normal" font-size="200px" font-family="Arial" >
H</text>
<path stroke="none" fill="#000000" transform="matrix(0.05 0 0 0.05 -84 -158)" d="M 1950.86,4081.04 L 1944.86,4091.44 L 1881.69,4054.96 L 1887.69,4044.57 L 1950.86,4081.04 Z " />
<text x="0" y="0" stroke="none" fill="#000000" transform="matrix(0.05 0 0 0.05 1.59918 73.919)" font-style="normal" font-weight="normal" font-size="200px" font-family="Arial" >
H</text>
<path stroke="none" fill="#000000" transform="matrix(0.05 0 0 0.05 -84 -158)" d="M 1943.27,4467.98 L 1949.27,4478.37 L 1887.76,4513.89 L 1881.76,4503.5 L 1943.27,4467.98 Z " />
<text x="0" y="0" stroke="none" fill="#000000" transform="matrix(0.05 0 0 0.05 26.4974 88.294)" font-style="normal" font-weight="normal" font-size="200px" font-family="Arial" >
H</text>
<path stroke="none" fill="#000000" transform="matrix(0.05 0 0 0.05 -84 -158)" d="M 2276.16,4674.45 L 2288.16,4674.45 L 2288.16,4750.67 L 2276.16,4750.67 L 2276.16,4674.45 Z " />
<text x="0" y="0" stroke="none" fill="#000000" transform="matrix(0.05 0 0 0.05 51.3956 73.919)" font-style="normal" font-weight="normal" font-size="200px" font-family="Arial" >
H</text>
<path stroke="none" fill="#000000" transform="matrix(0.05 0 0 0.05 -84 -158)" d="M 2618.65,4480.45 L 2624.65,4470.06 L 2681.52,4502.89 L 2675.52,4513.28 L 2618.65,4480.45 Z " />
<text x="0" y="0" stroke="none" fill="#000000" transform="matrix(0.05 0 0 0.05 63.7365 23.6441)" font-style="normal" font-weight="normal" font-size="200px" font-family="Arial" >
H</text>
<path stroke="none" fill="#000000" transform="matrix(0.05 0 0 0.05 -84 -158)" d="M 3193.61,3650.54 L 3187.61,3660.94 L 3124.43,3624.46 L 3130.43,3614.07 L 3193.61,3650.54 Z " />
<text x="0" y="0" stroke="none" fill="#000000" transform="matrix(0.05 0 0 0.05 88.6347 9.26905)" font-style="normal" font-weight="normal" font-size="200px" font-family="Arial" >
H</text>
<path stroke="none" fill="#000000" transform="matrix(0.05 0 0 0.05 -84 -158)" d="M 3530.91,3456.95 L 3518.91,3456.95 L 3518.91,3377.17 L 3530.91,3377.17 L 3530.91,3456.95 Z " />
<text x="0" y="0" stroke="none" fill="#000000" transform="matrix(0.05 0 0 0.05 113.533 23.6441)" font-style="normal" font-weight="normal" font-size="200px" font-family="Arial" >
H</text>
<path stroke="none" fill="#000000" transform="matrix(0.05 0 0 0.05 -84 -158)" d="M 3865.81,3658.86 L 3859.81,3648.47 L 3918.34,3614.68 L 3924.34,3625.07 L 3865.81,3658.86 Z " />
<text x="0" y="0" stroke="none" fill="#000000" transform="matrix(0.05 0 0 0.05 113.533 52.394)" font-style="normal" font-weight="normal" font-size="200px" font-family="Arial" >
H</text>
<path stroke="none" fill="#000000" transform="matrix(0.05 0 0 0.05 -84 -158)" d="M 3861.4,4049.95 L 3867.4,4039.56 L 3924.27,4072.39 L 3918.27,4082.78 L 3861.4,4049.95 Z " />
<text x="0" y="0" stroke="none" fill="#000000" transform="matrix(0.05 0 0 0.05 88.6347 66.769)" font-style="normal" font-weight="normal" font-size="200px" font-family="Arial" >
H</text>
<path stroke="none" fill="#000000" transform="matrix(0.05 0 0 0.05 -84 -158)" d="M 3518.91,4243.95 L 3530.91,4243.95 L 3530.91,4320.17 L 3518.91,4320.17 L 3518.91,4243.95 Z " />
</svg>
