<?xml version="1.0" standalone="no" ?>
<!DOCTYPE svg PUBLIC "-//W3C//DTD SVG 1.1//EN" "http://www.w3.org/Graphics/SVG/1.1/DTD/svg11.dtd">
<svg width="217px" height="59px" viewBox="0 0 217 59" style="background-color: #ffffff00" xmlns="http://www.w3.org/2000/svg" xmlns:xlink="http://www.w3.org/1999/xlink" version="1.1" >
<path stroke="none" fill="#000000" transform="matrix(0.05 0 0 0.05 -99 -200)" d="M 2027.62,4658.81 L 2039.62,4665.74 L 2039.62,4945.81 L 2027.62,4952.74 L 2027.62,4658.81 Z " />
<path stroke="none" fill="#000000" transform="matrix(0.05 0 0 0.05 -99 -200)" d="M 2027.62,4952.74 L 2039.62,4945.81 L 2282.16,5085.85 L 2282.16,5099.7 L 2027.62,4952.74 Z " />
<path stroke="none" fill="#000000" transform="matrix(0.05 0 0 0.05 -99 -200)" d="M 2082.28,4924.64 L 2088.28,4914.25 L 2285.16,5027.93 L 2279.16,5038.32 L 2082.28,4924.64 Z " />
<path stroke="none" fill="#000000" transform="matrix(0.05 0 0 0.05 -99 -200)" d="M 2282.16,5099.7 L 2282.16,5085.85 L 2524.71,4945.81 L 2536.71,4952.74 L 2282.16,5099.7 Z " />
<path stroke="none" fill="#000000" transform="matrix(0.05 0 0 0.05 -99 -200)" d="M 2536.71,4952.74 L 2524.71,4945.81 L 2524.71,4665.74 L 2530.71,4662.27 L 2536.71,4665.74 L 2536.71,4952.74 Z " />
<path stroke="none" fill="#000000" transform="matrix(0.05 0 0 0.05 -99 -200)" d="M 2485.05,4919.45 L 2473.05,4919.45 L 2473.05,4692.1 L 2485.05,4692.1 L 2485.05,4919.45 Z " />
<path stroke="none" fill="#000000" transform="matrix(0.05 0 0 0.05 -99 -200)" d="M 2530.71,4655.35 L 2530.71,4662.27 L 2524.71,4665.74 L 2282.16,4525.7 L 2282.16,4511.85 L 2530.71,4655.35 Z " />
<path stroke="none" fill="#000000" transform="matrix(0.05 0 0 0.05 -99 -200)" d="M 2282.16,4511.85 L 2282.16,4525.7 L 2039.62,4665.74 L 2027.62,4658.81 L 2282.16,4511.85 Z " />
<path stroke="none" fill="#000000" transform="matrix(0.05 0 0 0.05 -99 -200)" d="M 2279.16,4573.23 L 2285.16,4583.62 L 2088.28,4697.3 L 2082.28,4686.9 L 2279.16,4573.23 Z " />
<text x="0" y="0" stroke="none" fill="#0000ff" transform="matrix(0.05 0 0 0.05 36.3523 29.5203)" font-style="normal" font-weight="normal" font-size="200px" font-family="Arial" >
N</text>
<path stroke="none" fill="#000000" transform="matrix(0.05 0 0 0.05 -99 -200)" d="M 2536.71,4665.74 L 2530.71,4662.27 L 2530.71,4655.35 L 2674.57,4572.29 L 2680.57,4582.68 L 2536.71,4665.74 Z " />
<text x="0" y="0" stroke="none" fill="#0000ff" transform="matrix(0.05 0 0 0.05 48.7798 36.6953)" font-style="normal" font-weight="normal" font-size="200px" font-family="Arial" >
N</text>
<path stroke="none" fill="#000000" transform="matrix(0.05 0 0 0.05 -99 -200)" d="M 2876.48,4581.83 L 2882.48,4571.44 L 2928.18,4597.83 L 2922.18,4608.22 L 2876.48,4581.83 Z " />
<path stroke="none" fill="#000000" transform="matrix(0.05 0 0 0.05 -99 -200)" d="M 2902.31,4537.09 L 2908.31,4526.7 L 2954.01,4553.09 L 2948.01,4563.48 L 2902.31,4537.09 Z " />
<path stroke="none" fill="#000000" transform="matrix(0.05 0 0 0.05 -99 -200)" d="M 3131.97,4609.07 L 3125.97,4598.68 L 3270.36,4515.31 L 3276.36,4518.77 L 3276.36,4525.7 L 3131.97,4609.07 Z " />
<path stroke="none" fill="#000000" transform="matrix(0.05 0 0 0.05 -99 -200)" d="M 3276.36,4525.7 L 3276.36,4518.77 L 3282.36,4515.31 L 3524.91,4655.35 L 3524.91,4669.2 L 3276.36,4525.7 Z " />
<path stroke="none" fill="#000000" transform="matrix(0.05 0 0 0.05 -99 -200)" d="M 3524.91,4669.2 L 3524.91,4655.35 L 3767.46,4515.31 L 3779.46,4522.24 L 3524.91,4669.2 Z " />
<path stroke="none" fill="#000000" transform="matrix(0.05 0 0 0.05 -99 -200)" d="M 3527.91,4607.82 L 3521.91,4597.43 L 3718.8,4483.75 L 3724.8,4494.14 L 3527.91,4607.82 Z " />
<path stroke="none" fill="#000000" transform="matrix(0.05 0 0 0.05 -99 -200)" d="M 3779.46,4522.24 L 3767.46,4515.31 L 3767.46,4235.24 L 3779.46,4228.31 L 3779.46,4522.24 Z " />
<path stroke="none" fill="#000000" transform="matrix(0.05 0 0 0.05 -99 -200)" d="M 3779.46,4228.31 L 3767.46,4235.24 L 3524.91,4095.2 L 3524.91,4081.35 L 3779.46,4228.31 Z " />
<path stroke="none" fill="#000000" transform="matrix(0.05 0 0 0.05 -99 -200)" d="M 3724.8,4256.4 L 3718.8,4266.8 L 3521.91,4153.12 L 3527.91,4142.73 L 3724.8,4256.4 Z " />
<path stroke="none" fill="#000000" transform="matrix(0.05 0 0 0.05 -99 -200)" d="M 3524.91,4081.35 L 3524.91,4095.2 L 3282.36,4235.24 L 3270.36,4228.31 L 3524.91,4081.35 Z " />
<path stroke="none" fill="#000000" transform="matrix(0.05 0 0 0.05 -99 -200)" d="M 3270.36,4228.31 L 3282.36,4235.24 L 3282.36,4515.31 L 3276.36,4518.77 L 3270.36,4515.31 L 3270.36,4228.31 Z " />
<path stroke="none" fill="#000000" transform="matrix(0.05 0 0 0.05 -99 -200)" d="M 3322.02,4261.6 L 3334.02,4261.6 L 3334.02,4488.95 L 3322.02,4488.95 L 3322.02,4261.6 Z " />
<path stroke="none" fill="#000000" transform="matrix(0.05 0 0 0.05 -99 -200)" d="M 5021.36,4260.64 L 5033.36,4267.57 L 5033.36,4547.64 L 5021.36,4554.57 L 5021.36,4260.64 Z " />
<path stroke="none" fill="#000000" transform="matrix(0.05 0 0 0.05 -99 -200)" d="M 5021.36,4554.57 L 5033.36,4547.64 L 5275.91,4687.67 L 5275.91,4701.53 L 5021.36,4554.57 Z " />
<path stroke="none" fill="#000000" transform="matrix(0.05 0 0 0.05 -99 -200)" d="M 5076.02,4526.47 L 5082.02,4516.08 L 5278.91,4629.75 L 5272.91,4640.15 L 5076.02,4526.47 Z " />
<path stroke="none" fill="#000000" transform="matrix(0.05 0 0 0.05 -99 -200)" d="M 5275.91,4701.53 L 5275.91,4687.67 L 5518.45,4547.64 L 5530.45,4554.57 L 5275.91,4701.53 Z " />
<path stroke="none" fill="#000000" transform="matrix(0.05 0 0 0.05 -99 -200)" d="M 5530.45,4554.57 L 5518.45,4547.64 L 5518.45,4267.57 L 5524.45,4264.1 L 5530.45,4267.57 L 5530.45,4554.57 Z " />
<path stroke="none" fill="#000000" transform="matrix(0.05 0 0 0.05 -99 -200)" d="M 5478.79,4521.28 L 5466.79,4521.28 L 5466.79,4293.93 L 5478.79,4293.93 L 5478.79,4521.28 Z " />
<path stroke="none" fill="#000000" transform="matrix(0.05 0 0 0.05 -99 -200)" d="M 5524.45,4257.17 L 5524.45,4264.1 L 5518.45,4267.57 L 5275.91,4127.53 L 5275.91,4113.67 L 5524.45,4257.17 Z " />
<path stroke="none" fill="#000000" transform="matrix(0.05 0 0 0.05 -99 -200)" d="M 5275.91,4113.67 L 5275.91,4127.53 L 5033.36,4267.57 L 5021.36,4260.64 L 5275.91,4113.67 Z " />
<path stroke="none" fill="#000000" transform="matrix(0.05 0 0 0.05 -99 -200)" d="M 5272.91,4175.06 L 5278.91,4185.45 L 5082.02,4299.12 L 5076.02,4288.73 L 5272.91,4175.06 Z " />
<text x="0" y="0" stroke="none" fill="#0000ff" transform="matrix(0.05 0 0 0.05 186.039 9.6116)" font-style="normal" font-weight="normal" font-size="200px" font-family="Arial" >
N</text>
<path stroke="none" fill="#000000" transform="matrix(0.05 0 0 0.05 -99 -200)" d="M 5530.45,4267.57 L 5524.45,4264.1 L 5524.45,4257.17 L 5668.31,4174.12 L 5674.31,4184.51 L 5530.45,4267.57 Z " />
<text x="0" y="0" stroke="none" fill="#0000ff" transform="matrix(0.05 0 0 0.05 198.467 16.7866)" font-style="normal" font-weight="normal" font-size="200px" font-family="Arial" >
N</text>
<path stroke="none" fill="#000000" transform="matrix(0.05 0 0 0.05 -99 -200)" d="M 5870.22,4183.66 L 5876.22,4173.27 L 5921.92,4199.65 L 5915.92,4210.04 L 5870.22,4183.66 Z " />
<path stroke="none" fill="#000000" transform="matrix(0.05 0 0 0.05 -99 -200)" d="M 5844.39,4228.4 L 5850.39,4218 L 5896.09,4244.39 L 5890.09,4254.78 L 5844.39,4228.4 Z " />
<path stroke="none" fill="#000000" transform="matrix(0.05 0 0 0.05 -99 -200)" d="M 6015.55,4366.52 L 6027.55,4366.52 L 6027.55,4547.64 L 6021.55,4551.1 L 6015.55,4547.64 L 6015.55,4366.52 Z " />
<path stroke="none" fill="#000000" transform="matrix(0.05 0 0 0.05 -99 -200)" d="M 6015.55,4547.64 L 6021.55,4551.1 L 6021.55,4558.03 L 5779,4698.07 L 5767,4691.14 L 6015.55,4547.64 Z " />
<path stroke="none" fill="#000000" transform="matrix(0.05 0 0 0.05 -99 -200)" d="M 5767,4691.14 L 5779,4698.07 L 5779,4978.14 L 5767,4985.07 L 5767,4691.14 Z " />
<path stroke="none" fill="#000000" transform="matrix(0.05 0 0 0.05 -99 -200)" d="M 5818.66,4724.43 L 5830.66,4724.43 L 5830.66,4951.78 L 5818.66,4951.78 L 5818.66,4724.43 Z " />
<path stroke="none" fill="#000000" transform="matrix(0.05 0 0 0.05 -99 -200)" d="M 5767,4985.07 L 5779,4978.14 L 6021.55,5118.17 L 6021.55,5132.03 L 5767,4985.07 Z " />
<path stroke="none" fill="#000000" transform="matrix(0.05 0 0 0.05 -99 -200)" d="M 6021.55,5132.03 L 6021.55,5118.17 L 6264.1,4978.14 L 6276.1,4985.07 L 6021.55,5132.03 Z " />
<path stroke="none" fill="#000000" transform="matrix(0.05 0 0 0.05 -99 -200)" d="M 6024.55,5070.65 L 6018.55,5060.25 L 6215.44,4946.58 L 6221.44,4956.97 L 6024.55,5070.65 Z " />
<path stroke="none" fill="#000000" transform="matrix(0.05 0 0 0.05 -99 -200)" d="M 6276.1,4985.07 L 6264.1,4978.14 L 6264.1,4698.07 L 6276.1,4691.14 L 6276.1,4985.07 Z " />
<path stroke="none" fill="#000000" transform="matrix(0.05 0 0 0.05 -99 -200)" d="M 6276.1,4691.14 L 6264.1,4698.07 L 6021.55,4558.03 L 6021.55,4551.1 L 6027.55,4547.64 L 6276.1,4691.14 Z " />
<path stroke="none" fill="#000000" transform="matrix(0.05 0 0 0.05 -99 -200)" d="M 6221.44,4719.23 L 6215.44,4729.62 L 6018.55,4615.95 L 6024.55,4605.56 L 6221.44,4719.23 Z " />
<path stroke="none" fill="#000000" transform="matrix(0.05 0 0 0.05 -99 -200)" d="M 4549.91,4668.85 L 4112.41,4668.85 L 4112.41,4656.85 L 4549.91,4656.85 Z " />
<path stroke="none" fill="#000000" transform="matrix(0.05 0 0 0.05 -99 -200)" d="M 4250.91,4692.85 L 4688.41,4692.85 L 4688.41,4704.85 L 4250.91,4704.85 Z " />
<path stroke="none" fill="#000000" transform="matrix(0.05 0 0 0.05 -99 -200)" d="M 4706.41,4668.85 C 4706.41,4668.85 4548.91,4668.85 4548.91,4668.85 C 4548.91,4642.29 4526.41,4615.85 4526.41,4615.85 C 4526.41,4615.85 4706.41,4668.85 4706.41,4668.85 C 4706.41,4668.85 4706.41,4668.85 4706.41,4668.85 " />
<path stroke="#000000" stroke-width="1" fill="none" transform="matrix(0.05 0 0 0.05 -99 -200)" d="M 4706.41,4668.85 C 4706.41,4668.85 4548.91,4668.85 4548.91,4668.85 C 4548.91,4642.29 4526.41,4615.85 4526.41,4615.85 C 4526.41,4615.85 4706.41,4668.85 4706.41,4668.85 C 4706.41,4668.85 4706.41,4668.85 4706.41,4668.85 " />
<path stroke="none" fill="#000000" transform="matrix(0.05 0 0 0.05 -99 -200)" d="M 4094.41,4692.85 C 4094.41,4692.85 4274.41,4745.85 4274.41,4745.85 C 4274.41,4745.85 4251.91,4707.41 4251.91,4692.85 C 4251.91,4692.85 4094.41,4692.85 4094.41,4692.85 C 4094.41,4692.85 4094.41,4692.85 4094.41,4692.85 " />
<path stroke="#000000" stroke-width="1" fill="none" transform="matrix(0.05 0 0 0.05 -99 -200)" d="M 4094.41,4692.85 C 4094.41,4692.85 4274.41,4745.85 4274.41,4745.85 C 4274.41,4745.85 4251.91,4707.41 4251.91,4692.85 C 4251.91,4692.85 4094.41,4692.85 4094.41,4692.85 C 4094.41,4692.85 4094.41,4692.85 4094.41,4692.85 " />
<text x="0" y="0" stroke="none" fill="#000000" transform="matrix(0.05 0 0 0.05 110.129 28.7859)" font-style="normal" font-weight="normal" font-size="200px" font-family="Arial" >
Licht</text>
</svg>
