<?xml version="1.0" standalone="no" ?>
<!DOCTYPE svg PUBLIC "-//W3C//DTD SVG 1.1//EN" "http://www.w3.org/Graphics/SVG/1.1/DTD/svg11.dtd">
<svg width="68px" height="59px" viewBox="0 0 68 59" style="background-color: #ffffff00" xmlns="http://www.w3.org/2000/svg" xmlns:xlink="http://www.w3.org/1999/xlink" version="1.1" >
<path stroke="none" fill="#000000" transform="matrix(0.05 0 0 0.05 -102 -202)" d="M 2086.89,4302.44 L 2098.89,4309.36 L 2098.89,4589.44 L 2086.89,4596.36 L 2086.89,4302.44 Z " />
<path stroke="none" fill="#000000" transform="matrix(0.05 0 0 0.05 -102 -202)" d="M 2086.89,4596.36 L 2098.89,4589.44 L 2341.44,4729.47 L 2341.44,4743.33 L 2086.89,4596.36 Z " />
<path stroke="none" fill="#000000" transform="matrix(0.05 0 0 0.05 -102 -202)" d="M 2141.55,4568.27 L 2147.55,4557.88 L 2344.44,4671.55 L 2338.44,4681.94 L 2141.55,4568.27 Z " />
<path stroke="none" fill="#000000" transform="matrix(0.05 0 0 0.05 -102 -202)" d="M 2341.44,4743.33 L 2341.44,4729.47 L 2583.99,4589.44 L 2595.99,4596.36 L 2341.44,4743.33 Z " />
<path stroke="none" fill="#000000" transform="matrix(0.05 0 0 0.05 -102 -202)" d="M 2595.99,4596.36 L 2583.99,4589.44 L 2583.99,4309.36 L 2589.99,4305.9 L 2595.99,4309.36 L 2595.99,4596.36 Z " />
<path stroke="none" fill="#000000" transform="matrix(0.05 0 0 0.05 -102 -202)" d="M 2544.33,4563.07 L 2532.33,4563.07 L 2532.33,4335.73 L 2544.33,4335.73 L 2544.33,4563.07 Z " />
<path stroke="none" fill="#000000" transform="matrix(0.05 0 0 0.05 -102 -202)" d="M 2589.99,4298.97 L 2589.99,4305.9 L 2583.99,4309.36 L 2341.44,4169.33 L 2341.44,4155.47 L 2589.99,4298.97 Z " />
<path stroke="none" fill="#000000" transform="matrix(0.05 0 0 0.05 -102 -202)" d="M 2341.44,4155.47 L 2341.44,4169.33 L 2098.89,4309.36 L 2086.89,4302.44 L 2341.44,4155.47 Z " />
<path stroke="none" fill="#000000" transform="matrix(0.05 0 0 0.05 -102 -202)" d="M 2338.44,4216.86 L 2344.44,4227.25 L 2147.55,4340.92 L 2141.55,4330.53 L 2338.44,4216.86 Z " />
<text x="0" y="0" stroke="none" fill="#0000ff" transform="matrix(0.05 0 0 0.05 36.3162 9.70153)" font-style="normal" font-weight="normal" font-size="200px" font-family="Arial" >
N</text>
<path stroke="none" fill="#000000" transform="matrix(0.05 0 0 0.05 -102 -202)" d="M 2595.99,4309.36 L 2589.99,4305.9 L 2589.99,4298.97 L 2733.42,4216.17 L 2739.42,4226.56 L 2595.99,4309.36 Z " />
<text x="0" y="0" stroke="none" fill="#0000ff" transform="matrix(0.05 0 0 0.05 48.7437 16.8765)" font-style="normal" font-weight="normal" font-size="200px" font-family="Arial" >
N</text>
<path stroke="none" fill="#000000" transform="matrix(0.05 0 0 0.05 -102 -202)" d="M 2936.19,4225.71 L 2942.19,4215.31 L 2987.9,4241.7 L 2981.9,4252.09 L 2936.19,4225.71 Z " />
<path stroke="none" fill="#000000" transform="matrix(0.05 0 0 0.05 -102 -202)" d="M 2910.36,4270.45 L 2916.36,4260.05 L 2962.07,4286.44 L 2956.07,4296.83 L 2910.36,4270.45 Z " />
<path stroke="none" fill="#000000" transform="matrix(0.05 0 0 0.05 -102 -202)" d="M 3081.09,4409.32 L 3093.09,4409.32 L 3093.09,4589.44 L 3087.09,4592.9 L 3081.09,4589.44 L 3081.09,4409.32 Z " />
<path stroke="none" fill="#000000" transform="matrix(0.05 0 0 0.05 -102 -202)" d="M 3081.09,4589.44 L 3087.09,4592.9 L 3087.09,4599.83 L 2844.54,4739.86 L 2832.54,4732.94 L 3081.09,4589.44 Z " />
<path stroke="none" fill="#000000" transform="matrix(0.05 0 0 0.05 -102 -202)" d="M 2832.54,4732.94 L 2844.54,4739.86 L 2844.54,5019.94 L 2832.54,5026.86 L 2832.54,4732.94 Z " />
<path stroke="none" fill="#000000" transform="matrix(0.05 0 0 0.05 -102 -202)" d="M 2884.2,4766.23 L 2896.2,4766.23 L 2896.2,4993.57 L 2884.2,4993.57 L 2884.2,4766.23 Z " />
<path stroke="none" fill="#000000" transform="matrix(0.05 0 0 0.05 -102 -202)" d="M 2832.54,5026.86 L 2844.54,5019.94 L 3087.09,5159.97 L 3087.09,5173.83 L 2832.54,5026.86 Z " />
<path stroke="none" fill="#000000" transform="matrix(0.05 0 0 0.05 -102 -202)" d="M 3087.09,5173.83 L 3087.09,5159.97 L 3329.64,5019.94 L 3341.64,5026.86 L 3087.09,5173.83 Z " />
<path stroke="none" fill="#000000" transform="matrix(0.05 0 0 0.05 -102 -202)" d="M 3090.09,5112.44 L 3084.09,5102.05 L 3280.98,4988.38 L 3286.98,4998.77 L 3090.09,5112.44 Z " />
<path stroke="none" fill="#000000" transform="matrix(0.05 0 0 0.05 -102 -202)" d="M 3341.64,5026.86 L 3329.64,5019.94 L 3329.64,4739.86 L 3341.64,4732.94 L 3341.64,5026.86 Z " />
<path stroke="none" fill="#000000" transform="matrix(0.05 0 0 0.05 -102 -202)" d="M 3341.64,4732.94 L 3329.64,4739.86 L 3087.09,4599.83 L 3087.09,4592.9 L 3093.09,4589.44 L 3341.64,4732.94 Z " />
<path stroke="none" fill="#000000" transform="matrix(0.05 0 0 0.05 -102 -202)" d="M 3286.98,4761.03 L 3280.98,4771.42 L 3084.09,4657.75 L 3090.09,4647.36 L 3286.98,4761.03 Z " />
</svg>
