<?xml version="1.0" standalone="no" ?>
<!DOCTYPE svg PUBLIC "-//W3C//DTD SVG 1.1//EN" "http://www.w3.org/Graphics/SVG/1.1/DTD/svg11.dtd">
<svg width="117px" height="59px" viewBox="0 0 117 59" style="background-color: #ffffff00" xmlns="http://www.w3.org/2000/svg" xmlns:xlink="http://www.w3.org/1999/xlink" version="1.1" >
<path stroke="none" fill="#000000" transform="matrix(0.05 0 0 0.05 -128 -185)" d="M 3094.49,4317.84 L 3106.49,4324.77 L 3106.49,4603.84 L 3100.49,4607.3 L 3094.49,4603.84 L 3094.49,4317.84 Z " />
<path stroke="none" fill="#000000" transform="matrix(0.05 0 0 0.05 -128 -185)" d="M 3100.49,4614.23 L 3100.49,4607.3 L 3106.49,4603.84 L 3348.18,4743.37 L 3348.18,4757.23 L 3100.49,4614.23 Z " />
<path stroke="none" fill="#000000" transform="matrix(0.05 0 0 0.05 -128 -185)" d="M 3148.97,4582.78 L 3154.97,4572.38 L 3351.18,4685.66 L 3345.18,4696.05 L 3148.97,4582.78 Z " />
<path stroke="none" fill="#000000" transform="matrix(0.05 0 0 0.05 -128 -185)" d="M 3348.18,4757.23 L 3348.18,4743.37 L 3589.86,4603.84 L 3601.86,4610.77 L 3348.18,4757.23 Z " />
<path stroke="none" fill="#000000" transform="matrix(0.05 0 0 0.05 -128 -185)" d="M 3601.86,4610.77 L 3589.86,4603.84 L 3589.86,4324.77 L 3595.86,4321.3 L 3601.86,4324.77 L 3601.86,4610.77 Z " />
<path stroke="none" fill="#000000" transform="matrix(0.05 0 0 0.05 -128 -185)" d="M 3550.38,4577.58 L 3538.38,4577.58 L 3538.38,4351.02 L 3550.38,4351.02 L 3550.38,4577.58 Z " />
<path stroke="none" fill="#000000" transform="matrix(0.05 0 0 0.05 -128 -185)" d="M 3595.86,4314.37 L 3595.86,4321.3 L 3589.86,4324.77 L 3348.18,4185.23 L 3348.18,4171.37 L 3595.86,4314.37 Z " />
<path stroke="none" fill="#000000" transform="matrix(0.05 0 0 0.05 -128 -185)" d="M 3348.18,4171.37 L 3348.18,4185.23 L 3106.49,4324.77 L 3094.49,4317.84 L 3348.18,4171.37 Z " />
<path stroke="none" fill="#000000" transform="matrix(0.05 0 0 0.05 -128 -185)" d="M 3345.18,4232.55 L 3351.18,4242.94 L 3154.97,4356.22 L 3148.97,4345.83 L 3345.18,4232.55 Z " />
<text x="0" y="0" stroke="none" fill="#0000ff" transform="matrix(0.05 0 0 0.05 60.5664 27.4966)" font-style="normal" font-weight="normal" font-size="200px" font-family="Arial" >
N</text>
<path stroke="none" fill="#000000" transform="matrix(0.05 0 0 0.05 -128 -185)" d="M 3601.86,4324.77 L 3595.86,4321.3 L 3595.86,4314.37 L 3738.42,4232.07 L 3744.42,4242.46 L 3601.86,4324.77 Z " />
<text x="0" y="0" stroke="none" fill="#0000ff" transform="matrix(0.05 0 0 0.05 72.9505 34.6466)" font-style="normal" font-weight="normal" font-size="200px" font-family="Arial" >
N</text>
<path stroke="none" fill="#000000" transform="matrix(0.05 0 0 0.05 -128 -185)" d="M 3941.19,4241.61 L 3947.19,4231.22 L 3992.03,4257.1 L 3986.03,4267.5 L 3941.19,4241.61 Z " />
<path stroke="none" fill="#000000" transform="matrix(0.05 0 0 0.05 -128 -185)" d="M 3966.93,4197.03 L 3972.93,4186.63 L 4017.77,4212.52 L 4011.77,4222.91 L 3966.93,4197.03 Z " />
<path stroke="none" fill="#000000" transform="matrix(0.05 0 0 0.05 -128 -185)" d="M 4194.95,4268.35 L 4188.95,4257.95 L 4332.91,4174.84 L 4338.91,4178.3 L 4338.91,4185.23 L 4194.95,4268.35 Z " />
<path stroke="none" fill="#000000" transform="matrix(0.05 0 0 0.05 -128 -185)" d="M 4338.91,4185.23 L 4338.91,4178.3 L 4344.91,4174.84 L 4586.59,4314.37 L 4586.59,4328.23 L 4338.91,4185.23 Z " />
<path stroke="none" fill="#000000" transform="matrix(0.05 0 0 0.05 -128 -185)" d="M 4586.59,4328.23 L 4586.59,4314.37 L 4828.28,4174.84 L 4840.28,4181.77 L 4586.59,4328.23 Z " />
<path stroke="none" fill="#000000" transform="matrix(0.05 0 0 0.05 -128 -185)" d="M 4589.59,4267.05 L 4583.59,4256.66 L 4779.8,4143.38 L 4785.8,4153.78 L 4589.59,4267.05 Z " />
<path stroke="none" fill="#000000" transform="matrix(0.05 0 0 0.05 -128 -185)" d="M 4840.28,4181.77 L 4828.28,4174.84 L 4828.28,3895.77 L 4840.28,3888.84 L 4840.28,4181.77 Z " />
<path stroke="none" fill="#000000" transform="matrix(0.05 0 0 0.05 -128 -185)" d="M 4840.28,3888.84 L 4828.28,3895.77 L 4586.59,3756.23 L 4586.59,3742.37 L 4840.28,3888.84 Z " />
<path stroke="none" fill="#000000" transform="matrix(0.05 0 0 0.05 -128 -185)" d="M 4785.8,3916.83 L 4779.8,3927.22 L 4583.59,3813.94 L 4589.59,3803.55 L 4785.8,3916.83 Z " />
<path stroke="none" fill="#000000" transform="matrix(0.05 0 0 0.05 -128 -185)" d="M 4586.59,3742.37 L 4586.59,3756.23 L 4344.91,3895.77 L 4332.91,3888.84 L 4586.59,3742.37 Z " />
<path stroke="none" fill="#000000" transform="matrix(0.05 0 0 0.05 -128 -185)" d="M 4332.91,3888.84 L 4344.91,3895.77 L 4344.91,4174.84 L 4338.91,4178.3 L 4332.91,4174.84 L 4332.91,3888.84 Z " />
<path stroke="none" fill="#000000" transform="matrix(0.05 0 0 0.05 -128 -185)" d="M 4384.39,3922.02 L 4396.39,3922.02 L 4396.39,4148.58 L 4384.39,4148.58 L 4384.39,3922.02 Z " />
<text x="0" y="0" stroke="none" fill="#ff0000" transform="matrix(0.05 0 0 0.05 10.7514 56.0966)" font-style="normal" font-weight="normal" font-size="200px" font-family="Arial" >
O</text>
<path stroke="none" fill="#000000" transform="matrix(0.05 0 0 0.05 -128 -185)" d="M 3094.49,4603.84 L 3100.49,4607.3 L 3100.49,4614.23 L 2946.04,4703.4 L 2940.04,4693.01 L 3094.49,4603.84 Z " />
<path stroke="none" fill="#000000" transform="matrix(0.05 0 0 0.05 -128 -185)" d="M 2766.27,4693.41 L 2760.27,4703.8 L 2602.13,4612.5 L 2608.13,4602.11 L 2766.27,4693.41 Z " />
</svg>
