<?xml version="1.0" standalone="no" ?>
<!DOCTYPE svg PUBLIC "-//W3C//DTD SVG 1.1//EN" "http://www.w3.org/Graphics/SVG/1.1/DTD/svg11.dtd">
<svg width="92px" height="56px" viewBox="0 0 92 56" style="background-color: #ffffff00" xmlns="http://www.w3.org/2000/svg" xmlns:xlink="http://www.w3.org/1999/xlink" version="1.1" >
<path stroke="none" fill="#000000" transform="matrix(0.05 0 0 0.05 -99 -175)" d="M 2027.62,4132.29 L 2039.62,4139.21 L 2039.62,4419.29 L 2027.62,4426.21 L 2027.62,4132.29 Z " />
<path stroke="none" fill="#000000" transform="matrix(0.05 0 0 0.05 -99 -175)" d="M 2027.62,4426.21 L 2039.62,4419.29 L 2282.16,4559.32 L 2282.16,4573.18 L 2027.62,4426.21 Z " />
<path stroke="none" fill="#000000" transform="matrix(0.05 0 0 0.05 -99 -175)" d="M 2282.16,4573.18 L 2282.16,4559.32 L 2524.71,4419.29 L 2536.71,4426.21 L 2282.16,4573.18 Z " />
<path stroke="none" fill="#000000" transform="matrix(0.05 0 0 0.05 -99 -175)" d="M 2536.71,4426.21 L 2524.71,4419.29 L 2524.71,4139.21 L 2530.71,4135.75 L 2536.71,4139.21 L 2536.71,4426.21 Z " />
<path stroke="none" fill="#000000" transform="matrix(0.05 0 0 0.05 -99 -175)" d="M 2530.71,4128.82 L 2530.71,4135.75 L 2524.71,4139.21 L 2282.16,3999.18 L 2282.16,3985.32 L 2530.71,4128.82 Z " />
<path stroke="none" fill="#000000" transform="matrix(0.05 0 0 0.05 -99 -175)" d="M 2282.16,3985.32 L 2282.16,3999.18 L 2039.62,4139.21 L 2027.62,4132.29 L 2282.16,3985.32 Z " />
<text x="0" y="0" stroke="none" fill="#0000ff" transform="matrix(0.05 0 0 0.05 36.3523 28.194)" font-style="normal" font-weight="normal" font-size="200px" font-family="Arial" >
N</text>
<path stroke="none" fill="#000000" transform="matrix(0.05 0 0 0.05 -99 -175)" d="M 2536.71,4139.21 L 2530.71,4135.75 L 2530.71,4128.82 L 2674.14,4046.02 L 2680.14,4056.41 L 2536.71,4139.21 Z " />
<text x="0" y="0" stroke="none" fill="#0000ff" transform="matrix(0.05 0 0 0.05 48.7798 35.369)" font-style="normal" font-weight="normal" font-size="200px" font-family="Arial" >
N</text>
<path stroke="none" fill="#000000" transform="matrix(0.05 0 0 0.05 -99 -175)" d="M 2876.91,4055.56 L 2882.91,4045.16 L 2928.62,4071.55 L 2922.62,4081.94 L 2876.91,4055.56 Z " />
<path stroke="none" fill="#000000" transform="matrix(0.05 0 0 0.05 -99 -175)" d="M 2902.74,4010.82 L 2908.74,4000.43 L 2954.45,4026.81 L 2948.45,4037.2 L 2902.74,4010.82 Z " />
<path stroke="none" fill="#000000" transform="matrix(0.05 0 0 0.05 -99 -175)" d="M 3131.53,4082.79 L 3125.53,4072.4 L 3270.36,3988.79 L 3276.36,3992.25 L 3276.36,3999.18 L 3131.53,4082.79 Z " />
<path stroke="none" fill="#000000" transform="matrix(0.05 0 0 0.05 -99 -175)" d="M 3276.36,3999.18 L 3276.36,3992.25 L 3282.36,3988.79 L 3524.91,4128.82 L 3524.91,4142.68 L 3276.36,3999.18 Z " />
<path stroke="none" fill="#000000" transform="matrix(0.05 0 0 0.05 -99 -175)" d="M 3524.91,4142.68 L 3524.91,4128.82 L 3767.46,3988.79 L 3779.46,3995.71 L 3524.91,4142.68 Z " />
<path stroke="none" fill="#000000" transform="matrix(0.05 0 0 0.05 -99 -175)" d="M 3779.46,3995.71 L 3767.46,3988.79 L 3767.46,3708.71 L 3779.46,3701.79 L 3779.46,3995.71 Z " />
<path stroke="none" fill="#000000" transform="matrix(0.05 0 0 0.05 -99 -175)" d="M 3779.46,3701.79 L 3767.46,3708.71 L 3524.91,3568.68 L 3524.91,3554.82 L 3779.46,3701.79 Z " />
<path stroke="none" fill="#000000" transform="matrix(0.05 0 0 0.05 -99 -175)" d="M 3524.91,3554.82 L 3524.91,3568.68 L 3282.36,3708.71 L 3270.36,3701.79 L 3524.91,3554.82 Z " />
<path stroke="none" fill="#000000" transform="matrix(0.05 0 0 0.05 -99 -175)" d="M 3270.36,3701.79 L 3282.36,3708.71 L 3282.36,3988.79 L 3276.36,3992.25 L 3270.36,3988.79 L 3270.36,3701.79 Z " />
<path stroke="#000000" stroke-width="12" fill="none" transform="matrix(0.05 0 0 0.05 -99 -175)" d="M 2102.5,4279.25 A 179.669,179.669 0 1 1 2461.83,4279.25 A 179.669,179.669 0 1 1 2102.5,4279.25 Z " />
<path stroke="#000000" stroke-width="12" fill="none" transform="matrix(0.05 0 0 0.05 -99 -175)" d="M 3345.24,3848.75 A 179.669,179.669 0 1 1 3704.58,3848.75 A 179.669,179.669 0 1 1 3345.24,3848.75 Z " />
</svg>
