<?xml version="1.0" standalone="no" ?>
<!DOCTYPE svg PUBLIC "-//W3C//DTD SVG 1.1//EN" "http://www.w3.org/Graphics/SVG/1.1/DTD/svg11.dtd">
<svg width="144px" height="87px" viewBox="0 0 144 87" style="background-color: #ffffff00" xmlns="http://www.w3.org/2000/svg" xmlns:xlink="http://www.w3.org/1999/xlink" version="1.1" >
<path stroke="none" fill="#000000" transform="matrix(0.05 0 0 0.05 -128 -167)" d="M 3095.36,4324.27 L 3101.36,4320.8 L 3107.36,4324.27 L 3107.36,4603.34 L 3101.36,4606.8 L 3095.36,4603.34 L 3095.36,4324.27 Z " />
<path stroke="none" fill="#000000" transform="matrix(0.05 0 0 0.05 -128 -167)" d="M 3101.36,4613.73 L 3101.36,4606.8 L 3107.36,4603.34 L 3349.04,4742.87 L 3349.04,4749.8 L 3343.04,4753.27 L 3101.36,4613.73 Z " />
<path stroke="none" fill="#000000" transform="matrix(0.05 0 0 0.05 -128 -167)" d="M 3149.84,4582.28 L 3155.84,4571.88 L 3352.04,4685.16 L 3346.04,4695.55 L 3149.84,4582.28 Z " />
<path stroke="none" fill="#000000" transform="matrix(0.05 0 0 0.05 -128 -167)" d="M 3355.04,4753.27 L 3349.04,4749.8 L 3349.04,4742.87 L 3590.73,4603.34 L 3602.73,4610.27 L 3355.04,4753.27 Z " />
<path stroke="none" fill="#000000" transform="matrix(0.05 0 0 0.05 -128 -167)" d="M 3602.73,4610.27 L 3590.73,4603.34 L 3590.73,4324.27 L 3596.73,4320.8 L 3602.73,4324.27 L 3602.73,4610.27 Z " />
<path stroke="none" fill="#000000" transform="matrix(0.05 0 0 0.05 -128 -167)" d="M 3551.25,4577.08 L 3539.25,4577.08 L 3539.25,4350.52 L 3551.25,4350.52 L 3551.25,4577.08 Z " />
<path stroke="none" fill="#000000" transform="matrix(0.05 0 0 0.05 -128 -167)" d="M 3596.73,4313.87 L 3596.73,4320.8 L 3590.73,4324.27 L 3349.04,4184.73 L 3349.04,4170.87 L 3596.73,4313.87 Z " />
<path stroke="none" fill="#000000" transform="matrix(0.05 0 0 0.05 -128 -167)" d="M 3349.04,4170.87 L 3349.04,4184.73 L 3107.36,4324.27 L 3101.36,4320.8 L 3101.36,4313.87 L 3349.04,4170.87 Z " />
<path stroke="none" fill="#000000" transform="matrix(0.05 0 0 0.05 -128 -167)" d="M 3346.04,4232.05 L 3352.04,4242.44 L 3155.84,4355.72 L 3149.84,4345.33 L 3346.04,4232.05 Z " />
<text x="0" y="0" stroke="none" fill="#0000ff" transform="matrix(0.05 0 0 0.05 60.6097 45.4716)" font-style="normal" font-weight="normal" font-size="200px" font-family="Arial" >
N</text>
<path stroke="none" fill="#000000" transform="matrix(0.05 0 0 0.05 -128 -167)" d="M 3602.73,4324.27 L 3596.73,4320.8 L 3596.73,4313.87 L 3739.72,4231.32 L 3745.72,4241.71 L 3602.73,4324.27 Z " />
<text x="0" y="0" stroke="none" fill="#0000ff" transform="matrix(0.05 0 0 0.05 72.9938 52.6216)" font-style="normal" font-weight="normal" font-size="200px" font-family="Arial" >
N</text>
<path stroke="none" fill="#000000" transform="matrix(0.05 0 0 0.05 -128 -167)" d="M 3941.63,4240.86 L 3947.63,4230.47 L 3992.46,4256.35 L 3986.46,4266.75 L 3941.63,4240.86 Z " />
<path stroke="none" fill="#000000" transform="matrix(0.05 0 0 0.05 -128 -167)" d="M 3967.37,4196.28 L 3973.37,4185.88 L 4018.2,4211.77 L 4012.2,4222.16 L 3967.37,4196.28 Z " />
<path stroke="none" fill="#000000" transform="matrix(0.05 0 0 0.05 -128 -167)" d="M 4196.25,4267.6 L 4190.25,4257.2 L 4333.78,4174.34 L 4339.78,4177.8 L 4339.78,4184.73 L 4196.25,4267.6 Z " />
<path stroke="none" fill="#000000" transform="matrix(0.05 0 0 0.05 -128 -167)" d="M 4339.78,4184.73 L 4339.78,4177.8 L 4345.78,4174.34 L 4587.46,4313.87 L 4587.46,4327.73 L 4339.78,4184.73 Z " />
<path stroke="none" fill="#000000" transform="matrix(0.05 0 0 0.05 -128 -167)" d="M 4587.46,4327.73 L 4587.46,4313.87 L 4829.14,4174.34 L 4835.14,4177.8 L 4835.14,4184.73 L 4587.46,4327.73 Z " />
<path stroke="none" fill="#000000" transform="matrix(0.05 0 0 0.05 -128 -167)" d="M 4590.46,4266.55 L 4584.46,4256.16 L 4780.66,4142.88 L 4786.66,4153.28 L 4590.46,4266.55 Z " />
<path stroke="none" fill="#000000" transform="matrix(0.05 0 0 0.05 -128 -167)" d="M 4841.14,4174.34 L 4835.14,4177.8 L 4829.14,4174.34 L 4829.14,3895.27 L 4835.14,3891.8 L 4841.14,3895.27 L 4841.14,4174.34 Z " />
<path stroke="none" fill="#000000" transform="matrix(0.05 0 0 0.05 -128 -167)" d="M 4835.14,3884.87 L 4835.14,3891.8 L 4829.14,3895.27 L 4587.46,3755.73 L 4587.46,3741.87 L 4835.14,3884.87 Z " />
<path stroke="none" fill="#000000" transform="matrix(0.05 0 0 0.05 -128 -167)" d="M 4786.66,3916.33 L 4780.66,3926.72 L 4584.46,3813.44 L 4590.46,3803.05 L 4786.66,3916.33 Z " />
<path stroke="none" fill="#000000" transform="matrix(0.05 0 0 0.05 -128 -167)" d="M 4587.46,3741.87 L 4587.46,3755.73 L 4345.78,3895.27 L 4339.78,3891.8 L 4339.78,3884.87 L 4587.46,3741.87 Z " />
<path stroke="none" fill="#000000" transform="matrix(0.05 0 0 0.05 -128 -167)" d="M 4333.78,3895.27 L 4339.78,3891.8 L 4345.78,3895.27 L 4345.78,4174.34 L 4339.78,4177.8 L 4333.78,4174.34 L 4333.78,3895.27 Z " />
<path stroke="none" fill="#000000" transform="matrix(0.05 0 0 0.05 -128 -167)" d="M 4385.26,3921.52 L 4397.26,3921.52 L 4397.26,4148.08 L 4385.26,4148.08 L 4385.26,3921.52 Z " />
<text x="0" y="0" stroke="none" fill="#ff0000" transform="matrix(0.05 0 0 0.05 10.7947 74.0716)" font-style="normal" font-weight="normal" font-size="200px" font-family="Arial" >
O</text>
<path stroke="none" fill="#000000" transform="matrix(0.05 0 0 0.05 -128 -167)" d="M 3095.36,4603.34 L 3101.36,4606.8 L 3101.36,4613.73 L 2945.72,4703.59 L 2939.72,4693.19 L 3095.36,4603.34 Z " />
<path stroke="none" fill="#000000" transform="matrix(0.05 0 0 0.05 -128 -167)" d="M 2766.82,4692.73 L 2760.82,4703.12 L 2602.99,4612 L 2608.99,4601.61 L 2766.82,4692.73 Z " />
<path stroke="none" fill="#000000" transform="matrix(0.05 0 0 0.05 -128 -167)" d="M 3101.36,4313.87 L 3101.36,4320.8 L 3095.36,4324.27 L 2850.68,4183 L 2856.68,4172.61 L 3101.36,4313.87 Z " />
<path stroke="none" fill="#000000" transform="matrix(0.05 0 0 0.05 -128 -167)" d="M 3343.04,4753.27 L 3349.04,4749.8 L 3355.04,4753.27 L 3355.04,5035.8 L 3343.04,5035.8 L 3343.04,4753.27 Z " />
<text x="0" y="0" stroke="none" fill="#0000ff" transform="matrix(0.05 0 0 0.05 122.53 52.6216)" font-style="normal" font-weight="normal" font-size="200px" font-family="Arial" >
N</text>
<path stroke="none" fill="#000000" transform="matrix(0.05 0 0 0.05 -128 -167)" d="M 4835.14,4184.73 L 4835.14,4177.8 L 4841.14,4174.34 L 4983.2,4256.35 L 4977.2,4266.75 L 4835.14,4184.73 Z " />
<path stroke="none" fill="#000000" transform="matrix(0.05 0 0 0.05 -128 -167)" d="M 5076.83,4423.22 L 5088.83,4423.22 L 5088.83,4606.8 L 5076.83,4606.8 L 5076.83,4423.22 Z " />
<path stroke="none" fill="#000000" transform="matrix(0.05 0 0 0.05 -128 -167)" d="M 5186.98,4267.6 L 5180.98,4257.2 L 5327.51,4172.61 L 5333.51,4183 L 5186.98,4267.6 Z " />
<path stroke="none" fill="#000000" transform="matrix(0.05 0 0 0.05 -128 -167)" d="M 4841.14,3895.27 L 4835.14,3891.8 L 4835.14,3884.87 L 5076.83,3745.34 L 5082.83,3748.8 L 5082.83,3755.73 L 4841.14,3895.27 Z " />
<text x="0" y="0" stroke="none" fill="#80ff80" transform="matrix(0.05 0 0 0.05 135.471 16.8716)" font-style="normal" font-weight="normal" font-size="200px" font-family="Arial" >
F</text>
<path stroke="none" fill="#000000" transform="matrix(0.05 0 0 0.05 -128 -167)" d="M 5094.83,3748.8 L 5082.83,3748.8 L 5088.83,3738.41 L 5236.23,3653.31 L 5242.23,3663.7 L 5094.83,3748.8 Z " />
<text x="0" y="0" stroke="none" fill="#80ff80" transform="matrix(0.05 0 0 0.05 123.087 9.72163)" font-style="normal" font-weight="normal" font-size="200px" font-family="Arial" >
F</text>
<path stroke="none" fill="#000000" transform="matrix(0.05 0 0 0.05 -128 -167)" d="M 5088.83,3738.41 L 5082.83,3748.8 L 5076.83,3745.34 L 5076.83,3565.22 L 5088.83,3565.22 L 5088.83,3738.41 Z " />
<text x="0" y="0" stroke="none" fill="#80ff80" transform="matrix(0.05 0 0 0.05 135.471 31.1716)" font-style="normal" font-weight="normal" font-size="200px" font-family="Arial" >
F</text>
<path stroke="none" fill="#000000" transform="matrix(0.05 0 0 0.05 -128 -167)" d="M 5082.83,3755.73 L 5082.83,3748.8 L 5094.83,3748.8 L 5242.16,3833.86 L 5236.16,3844.26 L 5082.83,3755.73 Z " />
<text x="0" y="0" stroke="none" fill="#80ff80" transform="matrix(0.05 0 0 0.05 73.5505 24.0216)" font-style="normal" font-weight="normal" font-size="200px" font-family="Arial" >
F</text>
<path stroke="none" fill="#000000" transform="matrix(0.05 0 0 0.05 -128 -167)" d="M 4339.78,3884.87 L 4339.78,3891.8 L 4333.78,3895.27 L 4150.14,3789.25 L 4156.14,3778.85 L 4339.78,3884.87 Z " />
</svg>
