<?xml version="1.0" standalone="no" ?>
<!DOCTYPE svg PUBLIC "-//W3C//DTD SVG 1.1//EN" "http://www.w3.org/Graphics/SVG/1.1/DTD/svg11.dtd">
<svg width="95px" height="62px" viewBox="0 0 95 62" style="background-color: #ffffff00" xmlns="http://www.w3.org/2000/svg" xmlns:xlink="http://www.w3.org/1999/xlink" version="1.1" >
<text x="0" y="0" stroke="none" fill="#000000" transform="matrix(0.05 0 0 0.05 1.90001 38.369)" font-style="normal" font-weight="normal" font-size="200px" font-family="Arial" >
3</text>
<text x="0" y="0" stroke="none" fill="#000000" transform="matrix(0.05 0 0 0.05 1.90001 52.719)" font-style="normal" font-weight="normal" font-size="200px" font-family="Arial" >
4</text>
<text x="0" y="0" stroke="none" fill="#000000" transform="matrix(0.05 0 0 0.05 14.3275 59.894)" font-style="normal" font-weight="normal" font-size="200px" font-family="Arial" >
5</text>
<text x="0" y="0" stroke="none" fill="#000000" transform="matrix(0.05 0 0 0.05 26.7549 52.719)" font-style="normal" font-weight="normal" font-size="200px" font-family="Arial" >
6</text>
<text x="0" y="0" stroke="none" fill="#000000" transform="matrix(0.05 0 0 0.05 26.7549 38.369)" font-style="normal" font-weight="normal" font-size="200px" font-family="Arial" >
1</text>
<text x="0" y="0" stroke="none" fill="#000000" transform="matrix(0.05 0 0 0.05 14.3275 31.194)" font-style="normal" font-weight="normal" font-size="200px" font-family="Arial" >
2</text>
<path stroke="none" fill="#000000" transform="matrix(0.05 0 0 0.05 -97 -172)" d="M 2027.62,4242.87 L 2039.62,4242.87 L 2039.62,4318.17 L 2027.62,4318.17 L 2027.62,4242.87 Z " />
<path stroke="none" fill="#000000" transform="matrix(0.05 0 0 0.05 -97 -172)" d="M 2108.54,4472.94 L 2114.54,4462.54 L 2206.22,4515.48 L 2200.22,4525.87 L 2108.54,4472.94 Z " />
<path stroke="none" fill="#000000" transform="matrix(0.05 0 0 0.05 -97 -172)" d="M 2134.37,4428.2 L 2140.37,4417.81 L 2232.05,4470.74 L 2226.05,4481.13 L 2134.37,4428.2 Z " />
<path stroke="none" fill="#000000" transform="matrix(0.05 0 0 0.05 -97 -172)" d="M 2372.23,4521.18 L 2366.23,4510.79 L 2447.56,4463.83 L 2453.56,4474.22 L 2372.23,4521.18 Z " />
<path stroke="none" fill="#000000" transform="matrix(0.05 0 0 0.05 -97 -172)" d="M 2536.71,4318.88 L 2524.71,4318.88 L 2524.71,4239.87 L 2536.71,4239.87 L 2536.71,4318.88 Z " />
<path stroke="none" fill="#000000" transform="matrix(0.05 0 0 0.05 -97 -172)" d="M 2485.05,4318.88 L 2473.05,4318.88 L 2473.05,4239.87 L 2485.05,4239.87 L 2485.05,4318.88 Z " />
<path stroke="none" fill="#000000" transform="matrix(0.05 0 0 0.05 -97 -172)" d="M 2465.09,4090.93 L 2459.09,4101.33 L 2369.99,4049.89 L 2375.99,4039.49 L 2465.09,4090.93 Z " />
<path stroke="none" fill="#000000" transform="matrix(0.05 0 0 0.05 -97 -172)" d="M 2182.59,4042.81 L 2188.59,4053.21 L 2113.43,4096.6 L 2107.43,4086.21 L 2182.59,4042.81 Z " />
<path stroke="none" fill="#000000" transform="matrix(0.05 0 0 0.05 -97 -172)" d="M 2208.42,4087.55 L 2214.42,4097.94 L 2139.26,4141.34 L 2133.26,4130.95 L 2208.42,4087.55 Z " />
<text x="0" y="0" stroke="none" fill="#0000ff" transform="matrix(0.05 0 0 0.05 38.3523 31.194)" font-style="normal" font-weight="normal" font-size="200px" font-family="Arial" >
N</text>
<path stroke="none" fill="#000000" transform="matrix(0.05 0 0 0.05 -97 -172)" d="M 2599.56,4102.93 L 2593.56,4092.54 L 2674.14,4046.02 L 2680.14,4056.41 L 2599.56,4102.93 Z " />
<text x="0" y="0" stroke="none" fill="#0000ff" transform="matrix(0.05 0 0 0.05 50.7798 38.369)" font-style="normal" font-weight="normal" font-size="200px" font-family="Arial" >
N</text>
<path stroke="none" fill="#000000" transform="matrix(0.05 0 0 0.05 -97 -172)" d="M 2876.91,4055.56 L 2882.91,4045.16 L 2928.62,4071.55 L 2922.62,4081.94 L 2876.91,4055.56 Z " />
<path stroke="none" fill="#000000" transform="matrix(0.05 0 0 0.05 -97 -172)" d="M 2902.74,4010.82 L 2908.74,4000.43 L 2954.45,4026.81 L 2948.45,4037.2 L 2902.74,4010.82 Z " />
<text x="0" y="0" stroke="none" fill="#000000" transform="matrix(0.05 0 0 0.05 60.302 31.194)" font-style="normal" font-weight="normal" font-size="200px" font-family="Arial" >
1&apos;</text>
<path stroke="none" fill="#000000" transform="matrix(0.05 0 0 0.05 -97 -172)" d="M 3131.53,4082.79 L 3125.53,4072.4 L 3159.69,4052.68 L 3165.69,4063.07 L 3131.53,4082.79 Z " />
<text x="0" y="0" stroke="none" fill="#000000" transform="matrix(0.05 0 0 0.05 76.4648 38.369)" font-style="normal" font-weight="normal" font-size="200px" font-family="Arial" >
6&apos;</text>
<text x="0" y="0" stroke="none" fill="#000000" transform="matrix(0.05 0 0 0.05 85.1569 31.194)" font-style="normal" font-weight="normal" font-size="200px" font-family="Arial" >
5&apos;</text>
<text x="0" y="0" stroke="none" fill="#000000" transform="matrix(0.05 0 0 0.05 85.1569 16.844)" font-style="normal" font-weight="normal" font-size="200px" font-family="Arial" >
4&apos;</text>
<text x="0" y="0" stroke="none" fill="#000000" transform="matrix(0.05 0 0 0.05 76.4648 9.66905)" font-style="normal" font-weight="normal" font-size="200px" font-family="Arial" >
3&apos;</text>
<text x="0" y="0" stroke="none" fill="#000000" transform="matrix(0.05 0 0 0.05 60.302 16.844)" font-style="normal" font-weight="normal" font-size="200px" font-family="Arial" >
2&apos;</text>
<path stroke="none" fill="#000000" transform="matrix(0.05 0 0 0.05 -97 -172)" d="M 3302.81,4014.45 L 3308.81,4004.05 L 3450.58,4085.91 L 3444.58,4096.3 L 3302.81,4014.45 Z " />
<path stroke="none" fill="#000000" transform="matrix(0.05 0 0 0.05 -97 -172)" d="M 3646.92,4068.77 L 3634.92,4068.77 L 3646.92,4068.77 L 3634.92,4068.77 L 3646.92,4068.77 Z " />
<path stroke="none" fill="#000000" transform="matrix(0.05 0 0 0.05 -97 -172)" d="M 3672.75,4068.77 L 3660.75,4068.77 L 3672.75,4068.77 L 3660.75,4068.77 L 3672.75,4068.77 Z " />
<path stroke="none" fill="#000000" transform="matrix(0.05 0 0 0.05 -97 -172)" d="M 3779.46,3888.67 L 3767.46,3888.67 L 3767.46,3774.67 L 3779.46,3774.67 L 3779.46,3888.67 Z " />
<path stroke="none" fill="#000000" transform="matrix(0.05 0 0 0.05 -97 -172)" d="M 3664.91,3635.65 L 3658.91,3646.04 L 3603.33,3613.95 L 3609.33,3603.56 L 3664.91,3635.65 Z " />
<path stroke="none" fill="#000000" transform="matrix(0.05 0 0 0.05 -97 -172)" d="M 3639.08,3680.39 L 3633.08,3690.78 L 3577.5,3658.69 L 3583.5,3648.3 L 3639.08,3680.39 Z " />
<path stroke="none" fill="#000000" transform="matrix(0.05 0 0 0.05 -97 -172)" d="M 3439.22,3604.3 L 3445.22,3614.69 L 3336.57,3677.41 L 3330.57,3667.02 L 3439.22,3604.3 Z " />
<path stroke="none" fill="#000000" transform="matrix(0.05 0 0 0.05 -97 -172)" d="M 3270.36,3808.37 L 3282.36,3808.37 L 3282.36,3888.38 L 3270.36,3888.38 L 3270.36,3808.37 Z " />
<path stroke="none" fill="#000000" transform="matrix(0.05 0 0 0.05 -97 -172)" d="M 3322.02,3808.37 L 3334.02,3808.37 L 3334.02,3888.38 L 3322.02,3888.38 L 3322.02,3808.37 Z " />
</svg>
