<?xml version="1.0" encoding="utf-8" standalone="no"?>
<!DOCTYPE svg PUBLIC "-//W3C//DTD SVG 1.1//EN"
  "http://www.w3.org/Graphics/SVG/1.1/DTD/svg11.dtd">
<svg xmlns:xlink="http://www.w3.org/1999/xlink" width="720pt" height="360pt" viewBox="0 0 720 360" xmlns="http://www.w3.org/2000/svg" version="1.1">
 <metadata>
  <rdf:RDF xmlns:dc="http://purl.org/dc/elements/1.1/" xmlns:cc="http://creativecommons.org/ns#" xmlns:rdf="http://www.w3.org/1999/02/22-rdf-syntax-ns#">
   <cc:Work>
    <dc:type rdf:resource="http://purl.org/dc/dcmitype/StillImage"/>
    <dc:format>image/svg+xml</dc:format>
    <dc:creator>
     <cc:Agent>
      <dc:title>Matplotlib v3.10.8, https://matplotlib.org/</dc:title>
     </cc:Agent>
    </dc:creator>
   </cc:Work>
  </rdf:RDF>
 </metadata>
 <defs>
  <style type="text/css">*{stroke-linejoin: round; stroke-linecap: butt}</style>
 </defs>
 <g id="figure_1">
  <g id="patch_1">
   <path d="M 0 360 
L 720 360 
L 720 0 
L 0 0 
z
" style="fill: #ffffff"/>
  </g>
  <g id="axes_1">
   <g id="patch_2">
    <path d="M 123.904159 125.888645 
L 596.095841 125.888645 
Q 601.807837 125.888645 601.807837 119.820082 
L 601.807837 60.65159 
Q 601.807837 54.583027 596.095841 54.583027 
L 123.904159 54.583027 
Q 118.192163 54.583027 118.192163 60.65159 
L 118.192163 119.820082 
Q 118.192163 125.888645 123.904159 125.888645 
z
" clip-path="url(#p4c5f71aa82)" style="fill: #ffffff; stroke: #165de1; stroke-width: 1.5; stroke-linejoin: miter"/>
   </g>
   <g id="patch_3">
    <path d="M 122.00016 154.183111 
Q 122.00016 163.563265 122.00016 171.266369 
" clip-path="url(#p4c5f71aa82)" style="fill: none; stroke: #165de1; stroke-width: 1.5; stroke-linecap: round"/>
    <path d="M 124.40016 166.466369 
L 122.00016 171.266369 
L 119.60016 166.466369 
z
" clip-path="url(#p4c5f71aa82)" style="fill: #165de1; stroke: #165de1; stroke-width: 1.5; stroke-linecap: round"/>
   </g>
   <g id="patch_4">
    <path d="M 360 154.183111 
Q 360 163.563265 360 171.266369 
" clip-path="url(#p4c5f71aa82)" style="fill: none; stroke: #165de1; stroke-width: 1.5; stroke-linecap: round"/>
    <path d="M 362.4 166.466369 
L 360 171.266369 
L 357.6 166.466369 
z
" clip-path="url(#p4c5f71aa82)" style="fill: #165de1; stroke: #165de1; stroke-width: 1.5; stroke-linecap: round"/>
   </g>
   <g id="patch_5">
    <path d="M 597.99984 154.183111 
Q 597.99984 163.563265 597.99984 171.266369 
" clip-path="url(#p4c5f71aa82)" style="fill: none; stroke: #165de1; stroke-width: 1.5; stroke-linecap: round"/>
    <path d="M 600.39984 166.466369 
L 597.99984 171.266369 
L 595.59984 166.466369 
z
" clip-path="url(#p4c5f71aa82)" style="fill: #165de1; stroke: #165de1; stroke-width: 1.5; stroke-linecap: round"/>
   </g>
   <g id="patch_6">
    <path d="M 122.00016 251.787502 
Q 122.00016 260.409757 122.00016 267.354961 
" clip-path="url(#p4c5f71aa82)" style="fill: none; stroke: #165de1; stroke-width: 1.5; stroke-linecap: round"/>
    <path d="M 124.40016 262.554961 
L 122.00016 267.354961 
L 119.60016 262.554961 
z
" clip-path="url(#p4c5f71aa82)" style="fill: #165de1; stroke: #165de1; stroke-width: 1.5; stroke-linecap: round"/>
   </g>
   <g id="patch_7">
    <path d="M 16.804231 345.874061 
L 227.196089 345.874061 
Q 232.908085 345.874061 232.908085 339.805498 
L 232.908085 280.637006 
Q 232.908085 274.568443 227.196089 274.568443 
L 16.804231 274.568443 
Q 11.092235 274.568443 11.092235 280.637006 
L 11.092235 339.805498 
Q 11.092235 345.874061 16.804231 345.874061 
z
" clip-path="url(#p4c5f71aa82)" style="fill: #ffffff; stroke: #165de1; stroke-width: 1.5; stroke-linejoin: miter"/>
   </g>
   <g id="patch_8">
    <path d="M 360 251.787502 
Q 360 260.409757 360 267.354961 
" clip-path="url(#p4c5f71aa82)" style="fill: none; stroke: #165de1; stroke-width: 1.5; stroke-linecap: round"/>
    <path d="M 362.4 262.554961 
L 360 267.354961 
L 357.6 262.554961 
z
" clip-path="url(#p4c5f71aa82)" style="fill: #165de1; stroke: #165de1; stroke-width: 1.5; stroke-linecap: round"/>
   </g>
   <g id="patch_9">
    <path d="M 254.804071 345.874061 
L 465.195929 345.874061 
Q 470.907925 345.874061 470.907925 339.805498 
L 470.907925 280.637006 
Q 470.907925 274.568443 465.195929 274.568443 
L 254.804071 274.568443 
Q 249.092075 274.568443 249.092075 280.637006 
L 249.092075 339.805498 
Q 249.092075 345.874061 254.804071 345.874061 
z
" clip-path="url(#p4c5f71aa82)" style="fill: #ffffff; stroke: #165de1; stroke-width: 1.5; stroke-linejoin: miter"/>
   </g>
   <g id="patch_10">
    <path d="M 597.99984 251.787502 
Q 597.99984 260.409757 597.99984 267.354961 
" clip-path="url(#p4c5f71aa82)" style="fill: none; stroke: #165de1; stroke-width: 1.5; stroke-linecap: round"/>
    <path d="M 600.39984 262.554961 
L 597.99984 267.354961 
L 595.59984 262.554961 
z
" clip-path="url(#p4c5f71aa82)" style="fill: #165de1; stroke: #165de1; stroke-width: 1.5; stroke-linecap: round"/>
   </g>
   <g id="patch_11">
    <path d="M 492.803911 345.874061 
L 703.195769 345.874061 
Q 708.907765 345.874061 708.907765 339.805498 
L 708.907765 280.637006 
Q 708.907765 274.568443 703.195769 274.568443 
L 492.803911 274.568443 
Q 487.091915 274.568443 487.091915 280.637006 
L 487.091915 339.805498 
Q 487.091915 345.874061 492.803911 345.874061 
z
" clip-path="url(#p4c5f71aa82)" style="fill: #ffffff; stroke: #165de1; stroke-width: 1.5; stroke-linejoin: miter"/>
   </g>
   <g id="line2d_1">
    <path d="M 360 126.900072 
L 360 152.185752 
" clip-path="url(#p4c5f71aa82)" style="fill: none; stroke: #165de1; stroke-width: 1.5; stroke-linecap: square"/>
   </g>
   <g id="line2d_2">
    <path d="M 122.00016 152.185752 
L 597.99984 152.185752 
" clip-path="url(#p4c5f71aa82)" style="fill: none; stroke: #165de1; stroke-width: 1.5; stroke-linecap: square"/>
   </g>
   <g id="text_1">
    <!-- Struktur, Energie und Spektrum im Rechenmodell -->
    <g style="fill: #192d43" transform="translate(194.696094 24.322716) scale(0.14 -0.14)">
     <defs>
      <path id="Arial-BoldMT-53" d="M 231 1491 
L 1131 1578 
Q 1213 1125 1461 912 
Q 1709 700 2131 700 
Q 2578 700 2804 889 
Q 3031 1078 3031 1331 
Q 3031 1494 2936 1608 
Q 2841 1722 2603 1806 
Q 2441 1863 1863 2006 
Q 1119 2191 819 2459 
Q 397 2838 397 3381 
Q 397 3731 595 4036 
Q 794 4341 1167 4500 
Q 1541 4659 2069 4659 
Q 2931 4659 3367 4281 
Q 3803 3903 3825 3272 
L 2900 3231 
Q 2841 3584 2645 3739 
Q 2450 3894 2059 3894 
Q 1656 3894 1428 3728 
Q 1281 3622 1281 3444 
Q 1281 3281 1419 3166 
Q 1594 3019 2269 2859 
Q 2944 2700 3267 2529 
Q 3591 2359 3773 2064 
Q 3956 1769 3956 1334 
Q 3956 941 3737 597 
Q 3519 253 3119 86 
Q 2719 -81 2122 -81 
Q 1253 -81 787 320 
Q 322 722 231 1491 
z
" transform="scale(0.015625)"/>
      <path id="Arial-BoldMT-74" d="M 1981 3319 
L 1981 2619 
L 1381 2619 
L 1381 1281 
Q 1381 875 1398 808 
Q 1416 741 1477 697 
Q 1538 653 1625 653 
Q 1747 653 1978 738 
L 2053 56 
Q 1747 -75 1359 -75 
Q 1122 -75 931 4 
Q 741 84 652 211 
Q 563 338 528 553 
Q 500 706 500 1172 
L 500 2619 
L 97 2619 
L 97 3319 
L 500 3319 
L 500 3978 
L 1381 4491 
L 1381 3319 
L 1981 3319 
z
" transform="scale(0.015625)"/>
      <path id="Arial-BoldMT-72" d="M 1300 0 
L 422 0 
L 422 3319 
L 1238 3319 
L 1238 2847 
Q 1447 3181 1614 3287 
Q 1781 3394 1994 3394 
Q 2294 3394 2572 3228 
L 2300 2463 
Q 2078 2606 1888 2606 
Q 1703 2606 1575 2504 
Q 1447 2403 1373 2137 
Q 1300 1872 1300 1025 
L 1300 0 
z
" transform="scale(0.015625)"/>
      <path id="Arial-BoldMT-75" d="M 2644 0 
L 2644 497 
Q 2463 231 2167 78 
Q 1872 -75 1544 -75 
Q 1209 -75 943 72 
Q 678 219 559 484 
Q 441 750 441 1219 
L 441 3319 
L 1319 3319 
L 1319 1794 
Q 1319 1094 1367 936 
Q 1416 778 1544 686 
Q 1672 594 1869 594 
Q 2094 594 2272 717 
Q 2450 841 2515 1023 
Q 2581 1206 2581 1919 
L 2581 3319 
L 3459 3319 
L 3459 0 
L 2644 0 
z
" transform="scale(0.015625)"/>
      <path id="Arial-BoldMT-6b" d="M 428 0 
L 428 4581 
L 1306 4581 
L 1306 2150 
L 2334 3319 
L 3416 3319 
L 2281 2106 
L 3497 0 
L 2550 0 
L 1716 1491 
L 1306 1063 
L 1306 0 
L 428 0 
z
" transform="scale(0.015625)"/>
      <path id="Arial-BoldMT-2c" d="M 438 878 
L 1316 878 
L 1316 250 
Q 1316 -131 1250 -351 
Q 1184 -572 1001 -747 
Q 819 -922 538 -1022 
L 366 -659 
Q 631 -572 743 -419 
Q 856 -266 863 0 
L 438 0 
L 438 878 
z
" transform="scale(0.015625)"/>
      <path id="Arial-BoldMT-20" transform="scale(0.015625)"/>
      <path id="Arial-BoldMT-45" d="M 466 0 
L 466 4581 
L 3863 4581 
L 3863 3806 
L 1391 3806 
L 1391 2791 
L 3691 2791 
L 3691 2019 
L 1391 2019 
L 1391 772 
L 3950 772 
L 3950 0 
L 466 0 
z
" transform="scale(0.015625)"/>
      <path id="Arial-BoldMT-6e" d="M 3478 0 
L 2600 0 
L 2600 1694 
Q 2600 2231 2544 2389 
Q 2488 2547 2361 2634 
Q 2234 2722 2056 2722 
Q 1828 2722 1647 2597 
Q 1466 2472 1398 2265 
Q 1331 2059 1331 1503 
L 1331 0 
L 453 0 
L 453 3319 
L 1269 3319 
L 1269 2831 
Q 1703 3394 2363 3394 
Q 2653 3394 2893 3289 
Q 3134 3184 3257 3021 
Q 3381 2859 3429 2653 
Q 3478 2447 3478 2063 
L 3478 0 
z
" transform="scale(0.015625)"/>
      <path id="Arial-BoldMT-65" d="M 2381 1056 
L 3256 909 
Q 3088 428 2723 176 
Q 2359 -75 1813 -75 
Q 947 -75 531 491 
Q 203 944 203 1634 
Q 203 2459 634 2926 
Q 1066 3394 1725 3394 
Q 2466 3394 2894 2905 
Q 3322 2416 3303 1406 
L 1103 1406 
Q 1113 1016 1316 798 
Q 1519 581 1822 581 
Q 2028 581 2168 693 
Q 2309 806 2381 1056 
z
M 2431 1944 
Q 2422 2325 2234 2523 
Q 2047 2722 1778 2722 
Q 1491 2722 1303 2513 
Q 1116 2303 1119 1944 
L 2431 1944 
z
" transform="scale(0.015625)"/>
      <path id="Arial-BoldMT-67" d="M 378 -219 
L 1381 -341 
Q 1406 -516 1497 -581 
Q 1622 -675 1891 -675 
Q 2234 -675 2406 -572 
Q 2522 -503 2581 -350 
Q 2622 -241 2622 53 
L 2622 538 
Q 2228 0 1628 0 
Q 959 0 569 566 
Q 263 1013 263 1678 
Q 263 2513 664 2953 
Q 1066 3394 1663 3394 
Q 2278 3394 2678 2853 
L 2678 3319 
L 3500 3319 
L 3500 341 
Q 3500 -247 3403 -537 
Q 3306 -828 3131 -993 
Q 2956 -1159 2664 -1253 
Q 2372 -1347 1925 -1347 
Q 1081 -1347 728 -1058 
Q 375 -769 375 -325 
Q 375 -281 378 -219 
z
M 1163 1728 
Q 1163 1200 1367 954 
Q 1572 709 1872 709 
Q 2194 709 2416 961 
Q 2638 1213 2638 1706 
Q 2638 2222 2425 2472 
Q 2213 2722 1888 2722 
Q 1572 2722 1367 2476 
Q 1163 2231 1163 1728 
z
" transform="scale(0.015625)"/>
      <path id="Arial-BoldMT-69" d="M 459 3769 
L 459 4581 
L 1338 4581 
L 1338 3769 
L 459 3769 
z
M 459 0 
L 459 3319 
L 1338 3319 
L 1338 0 
L 459 0 
z
" transform="scale(0.015625)"/>
      <path id="Arial-BoldMT-64" d="M 3503 0 
L 2688 0 
L 2688 488 
Q 2484 203 2207 64 
Q 1931 -75 1650 -75 
Q 1078 -75 670 386 
Q 263 847 263 1672 
Q 263 2516 659 2955 
Q 1056 3394 1663 3394 
Q 2219 3394 2625 2931 
L 2625 4581 
L 3503 4581 
L 3503 0 
z
M 1159 1731 
Q 1159 1200 1306 963 
Q 1519 619 1900 619 
Q 2203 619 2415 876 
Q 2628 1134 2628 1647 
Q 2628 2219 2422 2470 
Q 2216 2722 1894 2722 
Q 1581 2722 1370 2473 
Q 1159 2225 1159 1731 
z
" transform="scale(0.015625)"/>
      <path id="Arial-BoldMT-70" d="M 434 3319 
L 1253 3319 
L 1253 2831 
Q 1413 3081 1684 3237 
Q 1956 3394 2288 3394 
Q 2866 3394 3269 2941 
Q 3672 2488 3672 1678 
Q 3672 847 3265 386 
Q 2859 -75 2281 -75 
Q 2006 -75 1782 34 
Q 1559 144 1313 409 
L 1313 -1263 
L 434 -1263 
L 434 3319 
z
M 1303 1716 
Q 1303 1156 1525 889 
Q 1747 622 2066 622 
Q 2372 622 2575 867 
Q 2778 1113 2778 1672 
Q 2778 2194 2568 2447 
Q 2359 2700 2050 2700 
Q 1728 2700 1515 2451 
Q 1303 2203 1303 1716 
z
" transform="scale(0.015625)"/>
      <path id="Arial-BoldMT-6d" d="M 394 3319 
L 1203 3319 
L 1203 2866 
Q 1638 3394 2238 3394 
Q 2556 3394 2790 3262 
Q 3025 3131 3175 2866 
Q 3394 3131 3647 3262 
Q 3900 3394 4188 3394 
Q 4553 3394 4806 3245 
Q 5059 3097 5184 2809 
Q 5275 2597 5275 2122 
L 5275 0 
L 4397 0 
L 4397 1897 
Q 4397 2391 4306 2534 
Q 4184 2722 3931 2722 
Q 3747 2722 3584 2609 
Q 3422 2497 3350 2280 
Q 3278 2063 3278 1594 
L 3278 0 
L 2400 0 
L 2400 1819 
Q 2400 2303 2353 2443 
Q 2306 2584 2207 2653 
Q 2109 2722 1941 2722 
Q 1738 2722 1575 2612 
Q 1413 2503 1342 2297 
Q 1272 2091 1272 1613 
L 1272 0 
L 394 0 
L 394 3319 
z
" transform="scale(0.015625)"/>
      <path id="Arial-BoldMT-52" d="M 469 0 
L 469 4581 
L 2416 4581 
Q 3150 4581 3483 4457 
Q 3816 4334 4016 4018 
Q 4216 3703 4216 3297 
Q 4216 2781 3912 2445 
Q 3609 2109 3006 2022 
Q 3306 1847 3501 1637 
Q 3697 1428 4028 894 
L 4588 0 
L 3481 0 
L 2813 997 
Q 2456 1531 2325 1670 
Q 2194 1809 2047 1861 
Q 1900 1913 1581 1913 
L 1394 1913 
L 1394 0 
L 469 0 
z
M 1394 2644 
L 2078 2644 
Q 2744 2644 2909 2700 
Q 3075 2756 3169 2893 
Q 3263 3031 3263 3238 
Q 3263 3469 3139 3611 
Q 3016 3753 2791 3791 
Q 2678 3806 2116 3806 
L 1394 3806 
L 1394 2644 
z
" transform="scale(0.015625)"/>
      <path id="Arial-BoldMT-63" d="M 3353 2338 
L 2488 2181 
Q 2444 2441 2289 2572 
Q 2134 2703 1888 2703 
Q 1559 2703 1364 2476 
Q 1169 2250 1169 1719 
Q 1169 1128 1367 884 
Q 1566 641 1900 641 
Q 2150 641 2309 783 
Q 2469 925 2534 1272 
L 3397 1125 
Q 3263 531 2881 228 
Q 2500 -75 1859 -75 
Q 1131 -75 698 384 
Q 266 844 266 1656 
Q 266 2478 700 2936 
Q 1134 3394 1875 3394 
Q 2481 3394 2839 3133 
Q 3197 2872 3353 2338 
z
" transform="scale(0.015625)"/>
      <path id="Arial-BoldMT-68" d="M 1334 4581 
L 1334 2897 
Q 1759 3394 2350 3394 
Q 2653 3394 2897 3281 
Q 3141 3169 3264 2994 
Q 3388 2819 3433 2606 
Q 3478 2394 3478 1947 
L 3478 0 
L 2600 0 
L 2600 1753 
Q 2600 2275 2550 2415 
Q 2500 2556 2373 2639 
Q 2247 2722 2056 2722 
Q 1838 2722 1666 2615 
Q 1494 2509 1414 2295 
Q 1334 2081 1334 1663 
L 1334 0 
L 456 0 
L 456 4581 
L 1334 4581 
z
" transform="scale(0.015625)"/>
      <path id="Arial-BoldMT-6f" d="M 256 1706 
Q 256 2144 472 2553 
Q 688 2963 1083 3178 
Q 1478 3394 1966 3394 
Q 2719 3394 3200 2905 
Q 3681 2416 3681 1669 
Q 3681 916 3195 420 
Q 2709 -75 1972 -75 
Q 1516 -75 1102 131 
Q 688 338 472 736 
Q 256 1134 256 1706 
z
M 1156 1659 
Q 1156 1166 1390 903 
Q 1625 641 1969 641 
Q 2313 641 2545 903 
Q 2778 1166 2778 1666 
Q 2778 2153 2545 2415 
Q 2313 2678 1969 2678 
Q 1625 2678 1390 2415 
Q 1156 2153 1156 1659 
z
" transform="scale(0.015625)"/>
      <path id="Arial-BoldMT-6c" d="M 459 0 
L 459 4581 
L 1338 4581 
L 1338 0 
L 459 0 
z
" transform="scale(0.015625)"/>
     </defs>
     <use xlink:href="#Arial-BoldMT-53"/>
     <use xlink:href="#Arial-BoldMT-74" transform="translate(66.699219 0)"/>
     <use xlink:href="#Arial-BoldMT-72" transform="translate(100 0)"/>
     <use xlink:href="#Arial-BoldMT-75" transform="translate(138.916016 0)"/>
     <use xlink:href="#Arial-BoldMT-6b" transform="translate(200 0)"/>
     <use xlink:href="#Arial-BoldMT-74" transform="translate(255.615234 0)"/>
     <use xlink:href="#Arial-BoldMT-75" transform="translate(288.916016 0)"/>
     <use xlink:href="#Arial-BoldMT-72" transform="translate(350 0)"/>
     <use xlink:href="#Arial-BoldMT-2c" transform="translate(383.416016 0)"/>
     <use xlink:href="#Arial-BoldMT-20" transform="translate(411.199219 0)"/>
     <use xlink:href="#Arial-BoldMT-45" transform="translate(438.982422 0)"/>
     <use xlink:href="#Arial-BoldMT-6e" transform="translate(505.681641 0)"/>
     <use xlink:href="#Arial-BoldMT-65" transform="translate(566.765625 0)"/>
     <use xlink:href="#Arial-BoldMT-72" transform="translate(622.380859 0)"/>
     <use xlink:href="#Arial-BoldMT-67" transform="translate(661.296875 0)"/>
     <use xlink:href="#Arial-BoldMT-69" transform="translate(722.380859 0)"/>
     <use xlink:href="#Arial-BoldMT-65" transform="translate(750.164062 0)"/>
     <use xlink:href="#Arial-BoldMT-20" transform="translate(805.779297 0)"/>
     <use xlink:href="#Arial-BoldMT-75" transform="translate(833.5625 0)"/>
     <use xlink:href="#Arial-BoldMT-6e" transform="translate(894.646484 0)"/>
     <use xlink:href="#Arial-BoldMT-64" transform="translate(955.730469 0)"/>
     <use xlink:href="#Arial-BoldMT-20" transform="translate(1016.814453 0)"/>
     <use xlink:href="#Arial-BoldMT-53" transform="translate(1044.597656 0)"/>
     <use xlink:href="#Arial-BoldMT-70" transform="translate(1111.296875 0)"/>
     <use xlink:href="#Arial-BoldMT-65" transform="translate(1172.380859 0)"/>
     <use xlink:href="#Arial-BoldMT-6b" transform="translate(1227.996094 0)"/>
     <use xlink:href="#Arial-BoldMT-74" transform="translate(1283.611328 0)"/>
     <use xlink:href="#Arial-BoldMT-72" transform="translate(1316.912109 0)"/>
     <use xlink:href="#Arial-BoldMT-75" transform="translate(1355.828125 0)"/>
     <use xlink:href="#Arial-BoldMT-6d" transform="translate(1416.912109 0)"/>
     <use xlink:href="#Arial-BoldMT-20" transform="translate(1505.828125 0)"/>
     <use xlink:href="#Arial-BoldMT-69" transform="translate(1533.611328 0)"/>
     <use xlink:href="#Arial-BoldMT-6d" transform="translate(1561.394531 0)"/>
     <use xlink:href="#Arial-BoldMT-20" transform="translate(1650.310547 0)"/>
     <use xlink:href="#Arial-BoldMT-52" transform="translate(1678.09375 0)"/>
     <use xlink:href="#Arial-BoldMT-65" transform="translate(1750.310547 0)"/>
     <use xlink:href="#Arial-BoldMT-63" transform="translate(1805.925781 0)"/>
     <use xlink:href="#Arial-BoldMT-68" transform="translate(1861.541016 0)"/>
     <use xlink:href="#Arial-BoldMT-65" transform="translate(1922.625 0)"/>
     <use xlink:href="#Arial-BoldMT-6e" transform="translate(1978.240234 0)"/>
     <use xlink:href="#Arial-BoldMT-6d" transform="translate(2039.324219 0)"/>
     <use xlink:href="#Arial-BoldMT-6f" transform="translate(2128.240234 0)"/>
     <use xlink:href="#Arial-BoldMT-64" transform="translate(2189.324219 0)"/>
     <use xlink:href="#Arial-BoldMT-65" transform="translate(2250.408203 0)"/>
     <use xlink:href="#Arial-BoldMT-6c" transform="translate(2306.023438 0)"/>
     <use xlink:href="#Arial-BoldMT-6c" transform="translate(2333.806641 0)"/>
    </g>
   </g>
   <g id="text_2">
    <!-- Atomkerne und Elektronen -->
    <g style="fill: #192d43" transform="translate(280.130859 85.258224) scale(0.125 -0.125)">
     <defs>
      <path id="Arial-BoldMT-41" d="M 4597 0 
L 3591 0 
L 3191 1041 
L 1359 1041 
L 981 0 
L 0 0 
L 1784 4581 
L 2763 4581 
L 4597 0 
z
M 2894 1813 
L 2263 3513 
L 1644 1813 
L 2894 1813 
z
" transform="scale(0.015625)"/>
     </defs>
     <use xlink:href="#Arial-BoldMT-41"/>
     <use xlink:href="#Arial-BoldMT-74" transform="translate(72.216797 0)"/>
     <use xlink:href="#Arial-BoldMT-6f" transform="translate(105.517578 0)"/>
     <use xlink:href="#Arial-BoldMT-6d" transform="translate(166.601562 0)"/>
     <use xlink:href="#Arial-BoldMT-6b" transform="translate(255.517578 0)"/>
     <use xlink:href="#Arial-BoldMT-65" transform="translate(311.132812 0)"/>
     <use xlink:href="#Arial-BoldMT-72" transform="translate(366.748047 0)"/>
     <use xlink:href="#Arial-BoldMT-6e" transform="translate(405.664062 0)"/>
     <use xlink:href="#Arial-BoldMT-65" transform="translate(466.748047 0)"/>
     <use xlink:href="#Arial-BoldMT-20" transform="translate(522.363281 0)"/>
     <use xlink:href="#Arial-BoldMT-75" transform="translate(550.146484 0)"/>
     <use xlink:href="#Arial-BoldMT-6e" transform="translate(611.230469 0)"/>
     <use xlink:href="#Arial-BoldMT-64" transform="translate(672.314453 0)"/>
     <use xlink:href="#Arial-BoldMT-20" transform="translate(733.398438 0)"/>
     <use xlink:href="#Arial-BoldMT-45" transform="translate(761.181641 0)"/>
     <use xlink:href="#Arial-BoldMT-6c" transform="translate(827.880859 0)"/>
     <use xlink:href="#Arial-BoldMT-65" transform="translate(855.664062 0)"/>
     <use xlink:href="#Arial-BoldMT-6b" transform="translate(911.279297 0)"/>
     <use xlink:href="#Arial-BoldMT-74" transform="translate(966.894531 0)"/>
     <use xlink:href="#Arial-BoldMT-72" transform="translate(1000.195312 0)"/>
     <use xlink:href="#Arial-BoldMT-6f" transform="translate(1039.111328 0)"/>
     <use xlink:href="#Arial-BoldMT-6e" transform="translate(1100.195312 0)"/>
     <use xlink:href="#Arial-BoldMT-65" transform="translate(1161.279297 0)"/>
     <use xlink:href="#Arial-BoldMT-6e" transform="translate(1216.894531 0)"/>
    </g>
   </g>
   <g id="text_3">
    <!-- Ihre Wechselwirkungen werden näherungsweise beschrieben. -->
    <g style="fill: #192d43" transform="translate(215.644688 105.554535) scale(0.105 -0.105)">
     <defs>
      <path id="ArialMT-49" d="M 597 0 
L 597 4581 
L 1203 4581 
L 1203 0 
L 597 0 
z
" transform="scale(0.015625)"/>
      <path id="ArialMT-68" d="M 422 0 
L 422 4581 
L 984 4581 
L 984 2938 
Q 1378 3394 1978 3394 
Q 2347 3394 2619 3248 
Q 2891 3103 3008 2847 
Q 3125 2591 3125 2103 
L 3125 0 
L 2563 0 
L 2563 2103 
Q 2563 2525 2380 2717 
Q 2197 2909 1863 2909 
Q 1613 2909 1392 2779 
Q 1172 2650 1078 2428 
Q 984 2206 984 1816 
L 984 0 
L 422 0 
z
" transform="scale(0.015625)"/>
      <path id="ArialMT-72" d="M 416 0 
L 416 3319 
L 922 3319 
L 922 2816 
Q 1116 3169 1280 3281 
Q 1444 3394 1641 3394 
Q 1925 3394 2219 3213 
L 2025 2691 
Q 1819 2813 1613 2813 
Q 1428 2813 1281 2702 
Q 1134 2591 1072 2394 
Q 978 2094 978 1738 
L 978 0 
L 416 0 
z
" transform="scale(0.015625)"/>
      <path id="ArialMT-65" d="M 2694 1069 
L 3275 997 
Q 3138 488 2766 206 
Q 2394 -75 1816 -75 
Q 1088 -75 661 373 
Q 234 822 234 1631 
Q 234 2469 665 2931 
Q 1097 3394 1784 3394 
Q 2450 3394 2872 2941 
Q 3294 2488 3294 1666 
Q 3294 1616 3291 1516 
L 816 1516 
Q 847 969 1125 678 
Q 1403 388 1819 388 
Q 2128 388 2347 550 
Q 2566 713 2694 1069 
z
M 847 1978 
L 2700 1978 
Q 2663 2397 2488 2606 
Q 2219 2931 1791 2931 
Q 1403 2931 1139 2672 
Q 875 2413 847 1978 
z
" transform="scale(0.015625)"/>
      <path id="ArialMT-20" transform="scale(0.015625)"/>
      <path id="ArialMT-57" d="M 1294 0 
L 78 4581 
L 700 4581 
L 1397 1578 
Q 1509 1106 1591 641 
Q 1766 1375 1797 1488 
L 2669 4581 
L 3400 4581 
L 4056 2263 
Q 4303 1400 4413 641 
Q 4500 1075 4641 1638 
L 5359 4581 
L 5969 4581 
L 4713 0 
L 4128 0 
L 3163 3491 
Q 3041 3928 3019 4028 
Q 2947 3713 2884 3491 
L 1913 0 
L 1294 0 
z
" transform="scale(0.015625)"/>
      <path id="ArialMT-63" d="M 2588 1216 
L 3141 1144 
Q 3050 572 2676 248 
Q 2303 -75 1759 -75 
Q 1078 -75 664 370 
Q 250 816 250 1647 
Q 250 2184 428 2587 
Q 606 2991 970 3192 
Q 1334 3394 1763 3394 
Q 2303 3394 2647 3120 
Q 2991 2847 3088 2344 
L 2541 2259 
Q 2463 2594 2264 2762 
Q 2066 2931 1784 2931 
Q 1359 2931 1093 2626 
Q 828 2322 828 1663 
Q 828 994 1084 691 
Q 1341 388 1753 388 
Q 2084 388 2306 591 
Q 2528 794 2588 1216 
z
" transform="scale(0.015625)"/>
      <path id="ArialMT-73" d="M 197 991 
L 753 1078 
Q 800 744 1014 566 
Q 1228 388 1613 388 
Q 2000 388 2187 545 
Q 2375 703 2375 916 
Q 2375 1106 2209 1216 
Q 2094 1291 1634 1406 
Q 1016 1563 777 1677 
Q 538 1791 414 1992 
Q 291 2194 291 2438 
Q 291 2659 392 2848 
Q 494 3038 669 3163 
Q 800 3259 1026 3326 
Q 1253 3394 1513 3394 
Q 1903 3394 2198 3281 
Q 2494 3169 2634 2976 
Q 2775 2784 2828 2463 
L 2278 2388 
Q 2241 2644 2061 2787 
Q 1881 2931 1553 2931 
Q 1166 2931 1000 2803 
Q 834 2675 834 2503 
Q 834 2394 903 2306 
Q 972 2216 1119 2156 
Q 1203 2125 1616 2013 
Q 2213 1853 2448 1751 
Q 2684 1650 2818 1456 
Q 2953 1263 2953 975 
Q 2953 694 2789 445 
Q 2625 197 2315 61 
Q 2006 -75 1616 -75 
Q 969 -75 630 194 
Q 291 463 197 991 
z
" transform="scale(0.015625)"/>
      <path id="ArialMT-6c" d="M 409 0 
L 409 4581 
L 972 4581 
L 972 0 
L 409 0 
z
" transform="scale(0.015625)"/>
      <path id="ArialMT-77" d="M 1034 0 
L 19 3319 
L 600 3319 
L 1128 1403 
L 1325 691 
Q 1338 744 1497 1375 
L 2025 3319 
L 2603 3319 
L 3100 1394 
L 3266 759 
L 3456 1400 
L 4025 3319 
L 4572 3319 
L 3534 0 
L 2950 0 
L 2422 1988 
L 2294 2553 
L 1622 0 
L 1034 0 
z
" transform="scale(0.015625)"/>
      <path id="ArialMT-69" d="M 425 3934 
L 425 4581 
L 988 4581 
L 988 3934 
L 425 3934 
z
M 425 0 
L 425 3319 
L 988 3319 
L 988 0 
L 425 0 
z
" transform="scale(0.015625)"/>
      <path id="ArialMT-6b" d="M 425 0 
L 425 4581 
L 988 4581 
L 988 1969 
L 2319 3319 
L 3047 3319 
L 1778 2088 
L 3175 0 
L 2481 0 
L 1384 1697 
L 988 1316 
L 988 0 
L 425 0 
z
" transform="scale(0.015625)"/>
      <path id="ArialMT-75" d="M 2597 0 
L 2597 488 
Q 2209 -75 1544 -75 
Q 1250 -75 995 37 
Q 741 150 617 320 
Q 494 491 444 738 
Q 409 903 409 1263 
L 409 3319 
L 972 3319 
L 972 1478 
Q 972 1038 1006 884 
Q 1059 663 1231 536 
Q 1403 409 1656 409 
Q 1909 409 2131 539 
Q 2353 669 2445 892 
Q 2538 1116 2538 1541 
L 2538 3319 
L 3100 3319 
L 3100 0 
L 2597 0 
z
" transform="scale(0.015625)"/>
      <path id="ArialMT-6e" d="M 422 0 
L 422 3319 
L 928 3319 
L 928 2847 
Q 1294 3394 1984 3394 
Q 2284 3394 2536 3286 
Q 2788 3178 2913 3003 
Q 3038 2828 3088 2588 
Q 3119 2431 3119 2041 
L 3119 0 
L 2556 0 
L 2556 2019 
Q 2556 2363 2490 2533 
Q 2425 2703 2258 2804 
Q 2091 2906 1866 2906 
Q 1506 2906 1245 2678 
Q 984 2450 984 1813 
L 984 0 
L 422 0 
z
" transform="scale(0.015625)"/>
      <path id="ArialMT-67" d="M 319 -275 
L 866 -356 
Q 900 -609 1056 -725 
Q 1266 -881 1628 -881 
Q 2019 -881 2231 -725 
Q 2444 -569 2519 -288 
Q 2563 -116 2559 434 
Q 2191 0 1641 0 
Q 956 0 581 494 
Q 206 988 206 1678 
Q 206 2153 378 2554 
Q 550 2956 876 3175 
Q 1203 3394 1644 3394 
Q 2231 3394 2613 2919 
L 2613 3319 
L 3131 3319 
L 3131 450 
Q 3131 -325 2973 -648 
Q 2816 -972 2473 -1159 
Q 2131 -1347 1631 -1347 
Q 1038 -1347 672 -1080 
Q 306 -813 319 -275 
z
M 784 1719 
Q 784 1066 1043 766 
Q 1303 466 1694 466 
Q 2081 466 2343 764 
Q 2606 1063 2606 1700 
Q 2606 2309 2336 2618 
Q 2066 2928 1684 2928 
Q 1309 2928 1046 2623 
Q 784 2319 784 1719 
z
" transform="scale(0.015625)"/>
      <path id="ArialMT-64" d="M 2575 0 
L 2575 419 
Q 2259 -75 1647 -75 
Q 1250 -75 917 144 
Q 584 363 401 755 
Q 219 1147 219 1656 
Q 219 2153 384 2558 
Q 550 2963 881 3178 
Q 1213 3394 1622 3394 
Q 1922 3394 2156 3267 
Q 2391 3141 2538 2938 
L 2538 4581 
L 3097 4581 
L 3097 0 
L 2575 0 
z
M 797 1656 
Q 797 1019 1065 703 
Q 1334 388 1700 388 
Q 2069 388 2326 689 
Q 2584 991 2584 1609 
Q 2584 2291 2321 2609 
Q 2059 2928 1675 2928 
Q 1300 2928 1048 2622 
Q 797 2316 797 1656 
z
" transform="scale(0.015625)"/>
      <path id="ArialMT-e4" d="M 2588 409 
Q 2275 144 1986 34 
Q 1697 -75 1366 -75 
Q 819 -75 525 192 
Q 231 459 231 875 
Q 231 1119 342 1320 
Q 453 1522 633 1644 
Q 813 1766 1038 1828 
Q 1203 1872 1538 1913 
Q 2219 1994 2541 2106 
Q 2544 2222 2544 2253 
Q 2544 2597 2384 2738 
Q 2169 2928 1744 2928 
Q 1347 2928 1158 2789 
Q 969 2650 878 2297 
L 328 2372 
Q 403 2725 575 2942 
Q 747 3159 1072 3276 
Q 1397 3394 1825 3394 
Q 2250 3394 2515 3294 
Q 2781 3194 2906 3042 
Q 3031 2891 3081 2659 
Q 3109 2516 3109 2141 
L 3109 1391 
Q 3109 606 3145 398 
Q 3181 191 3288 0 
L 2700 0 
Q 2613 175 2588 409 
z
M 2541 1666 
Q 2234 1541 1622 1453 
Q 1275 1403 1131 1340 
Q 988 1278 909 1158 
Q 831 1038 831 891 
Q 831 666 1001 516 
Q 1172 366 1500 366 
Q 1825 366 2078 508 
Q 2331 650 2450 897 
Q 2541 1088 2541 1459 
L 2541 1666 
z
M 884 3969 
L 884 4609 
L 1472 4609 
L 1472 3969 
L 884 3969 
z
M 2050 3969 
L 2050 4609 
L 2638 4609 
L 2638 3969 
L 2050 3969 
z
" transform="scale(0.015625)"/>
      <path id="ArialMT-62" d="M 941 0 
L 419 0 
L 419 4581 
L 981 4581 
L 981 2947 
Q 1338 3394 1891 3394 
Q 2197 3394 2470 3270 
Q 2744 3147 2920 2923 
Q 3097 2700 3197 2384 
Q 3297 2069 3297 1709 
Q 3297 856 2875 390 
Q 2453 -75 1863 -75 
Q 1275 -75 941 416 
L 941 0 
z
M 934 1684 
Q 934 1088 1097 822 
Q 1363 388 1816 388 
Q 2184 388 2453 708 
Q 2722 1028 2722 1663 
Q 2722 2313 2464 2622 
Q 2206 2931 1841 2931 
Q 1472 2931 1203 2611 
Q 934 2291 934 1684 
z
" transform="scale(0.015625)"/>
      <path id="ArialMT-2e" d="M 581 0 
L 581 641 
L 1222 641 
L 1222 0 
L 581 0 
z
" transform="scale(0.015625)"/>
     </defs>
     <use xlink:href="#ArialMT-49"/>
     <use xlink:href="#ArialMT-68" transform="translate(27.783203 0)"/>
     <use xlink:href="#ArialMT-72" transform="translate(83.398438 0)"/>
     <use xlink:href="#ArialMT-65" transform="translate(116.699219 0)"/>
     <use xlink:href="#ArialMT-20" transform="translate(172.314453 0)"/>
     <use xlink:href="#ArialMT-57" transform="translate(200.097656 0)"/>
     <use xlink:href="#ArialMT-65" transform="translate(292.732422 0)"/>
     <use xlink:href="#ArialMT-63" transform="translate(348.347656 0)"/>
     <use xlink:href="#ArialMT-68" transform="translate(398.347656 0)"/>
     <use xlink:href="#ArialMT-73" transform="translate(453.962891 0)"/>
     <use xlink:href="#ArialMT-65" transform="translate(503.962891 0)"/>
     <use xlink:href="#ArialMT-6c" transform="translate(559.578125 0)"/>
     <use xlink:href="#ArialMT-77" transform="translate(581.794922 0)"/>
     <use xlink:href="#ArialMT-69" transform="translate(654.011719 0)"/>
     <use xlink:href="#ArialMT-72" transform="translate(676.228516 0)"/>
     <use xlink:href="#ArialMT-6b" transform="translate(709.529297 0)"/>
     <use xlink:href="#ArialMT-75" transform="translate(759.529297 0)"/>
     <use xlink:href="#ArialMT-6e" transform="translate(815.144531 0)"/>
     <use xlink:href="#ArialMT-67" transform="translate(870.759766 0)"/>
     <use xlink:href="#ArialMT-65" transform="translate(926.375 0)"/>
     <use xlink:href="#ArialMT-6e" transform="translate(981.990234 0)"/>
     <use xlink:href="#ArialMT-20" transform="translate(1037.605469 0)"/>
     <use xlink:href="#ArialMT-77" transform="translate(1065.388672 0)"/>
     <use xlink:href="#ArialMT-65" transform="translate(1137.605469 0)"/>
     <use xlink:href="#ArialMT-72" transform="translate(1193.220703 0)"/>
     <use xlink:href="#ArialMT-64" transform="translate(1226.521484 0)"/>
     <use xlink:href="#ArialMT-65" transform="translate(1282.136719 0)"/>
     <use xlink:href="#ArialMT-6e" transform="translate(1337.751953 0)"/>
     <use xlink:href="#ArialMT-20" transform="translate(1393.367188 0)"/>
     <use xlink:href="#ArialMT-6e" transform="translate(1421.150391 0)"/>
     <use xlink:href="#ArialMT-e4" transform="translate(1476.765625 0)"/>
     <use xlink:href="#ArialMT-68" transform="translate(1532.380859 0)"/>
     <use xlink:href="#ArialMT-65" transform="translate(1587.996094 0)"/>
     <use xlink:href="#ArialMT-72" transform="translate(1643.611328 0)"/>
     <use xlink:href="#ArialMT-75" transform="translate(1676.912109 0)"/>
     <use xlink:href="#ArialMT-6e" transform="translate(1732.527344 0)"/>
     <use xlink:href="#ArialMT-67" transform="translate(1788.142578 0)"/>
     <use xlink:href="#ArialMT-73" transform="translate(1843.757812 0)"/>
     <use xlink:href="#ArialMT-77" transform="translate(1893.757812 0)"/>
     <use xlink:href="#ArialMT-65" transform="translate(1965.974609 0)"/>
     <use xlink:href="#ArialMT-69" transform="translate(2021.589844 0)"/>
     <use xlink:href="#ArialMT-73" transform="translate(2043.806641 0)"/>
     <use xlink:href="#ArialMT-65" transform="translate(2093.806641 0)"/>
     <use xlink:href="#ArialMT-20" transform="translate(2149.421875 0)"/>
     <use xlink:href="#ArialMT-62" transform="translate(2177.205078 0)"/>
     <use xlink:href="#ArialMT-65" transform="translate(2232.820312 0)"/>
     <use xlink:href="#ArialMT-73" transform="translate(2288.435547 0)"/>
     <use xlink:href="#ArialMT-63" transform="translate(2338.435547 0)"/>
     <use xlink:href="#ArialMT-68" transform="translate(2388.435547 0)"/>
     <use xlink:href="#ArialMT-72" transform="translate(2444.050781 0)"/>
     <use xlink:href="#ArialMT-69" transform="translate(2477.351562 0)"/>
     <use xlink:href="#ArialMT-65" transform="translate(2499.568359 0)"/>
     <use xlink:href="#ArialMT-62" transform="translate(2555.183594 0)"/>
     <use xlink:href="#ArialMT-65" transform="translate(2610.798828 0)"/>
     <use xlink:href="#ArialMT-6e" transform="translate(2666.414062 0)"/>
     <use xlink:href="#ArialMT-2e" transform="translate(2722.029297 0)"/>
    </g>
   </g>
   <g id="text_4">
    <!-- Strukturen optimieren -->
    <g style="fill: #192d43" transform="translate(56.716957 194.442105) scale(0.125 -0.125)">
     <use xlink:href="#Arial-BoldMT-53"/>
     <use xlink:href="#Arial-BoldMT-74" transform="translate(66.699219 0)"/>
     <use xlink:href="#Arial-BoldMT-72" transform="translate(100 0)"/>
     <use xlink:href="#Arial-BoldMT-75" transform="translate(138.916016 0)"/>
     <use xlink:href="#Arial-BoldMT-6b" transform="translate(200 0)"/>
     <use xlink:href="#Arial-BoldMT-74" transform="translate(255.615234 0)"/>
     <use xlink:href="#Arial-BoldMT-75" transform="translate(288.916016 0)"/>
     <use xlink:href="#Arial-BoldMT-72" transform="translate(350 0)"/>
     <use xlink:href="#Arial-BoldMT-65" transform="translate(388.916016 0)"/>
     <use xlink:href="#Arial-BoldMT-6e" transform="translate(444.53125 0)"/>
     <use xlink:href="#Arial-BoldMT-20" transform="translate(505.615234 0)"/>
     <use xlink:href="#Arial-BoldMT-6f" transform="translate(533.398438 0)"/>
     <use xlink:href="#Arial-BoldMT-70" transform="translate(594.482422 0)"/>
     <use xlink:href="#Arial-BoldMT-74" transform="translate(655.566406 0)"/>
     <use xlink:href="#Arial-BoldMT-69" transform="translate(688.867188 0)"/>
     <use xlink:href="#Arial-BoldMT-6d" transform="translate(716.650391 0)"/>
     <use xlink:href="#Arial-BoldMT-69" transform="translate(805.566406 0)"/>
     <use xlink:href="#Arial-BoldMT-65" transform="translate(833.349609 0)"/>
     <use xlink:href="#Arial-BoldMT-72" transform="translate(888.964844 0)"/>
     <use xlink:href="#Arial-BoldMT-65" transform="translate(927.880859 0)"/>
     <use xlink:href="#Arial-BoldMT-6e" transform="translate(983.496094 0)"/>
    </g>
   </g>
   <g id="text_5">
    <!-- Atompositionen verändern, -->
    <g style="fill: #192d43" transform="translate(59.258558 220.874226) scale(0.105 -0.105)">
     <defs>
      <path id="ArialMT-41" d="M -9 0 
L 1750 4581 
L 2403 4581 
L 4278 0 
L 3588 0 
L 3053 1388 
L 1138 1388 
L 634 0 
L -9 0 
z
M 1313 1881 
L 2866 1881 
L 2388 3150 
Q 2169 3728 2063 4100 
Q 1975 3659 1816 3225 
L 1313 1881 
z
" transform="scale(0.015625)"/>
      <path id="ArialMT-74" d="M 1650 503 
L 1731 6 
Q 1494 -44 1306 -44 
Q 1000 -44 831 53 
Q 663 150 594 308 
Q 525 466 525 972 
L 525 2881 
L 113 2881 
L 113 3319 
L 525 3319 
L 525 4141 
L 1084 4478 
L 1084 3319 
L 1650 3319 
L 1650 2881 
L 1084 2881 
L 1084 941 
Q 1084 700 1114 631 
Q 1144 563 1211 522 
Q 1278 481 1403 481 
Q 1497 481 1650 503 
z
" transform="scale(0.015625)"/>
      <path id="ArialMT-6f" d="M 213 1659 
Q 213 2581 725 3025 
Q 1153 3394 1769 3394 
Q 2453 3394 2887 2945 
Q 3322 2497 3322 1706 
Q 3322 1066 3130 698 
Q 2938 331 2570 128 
Q 2203 -75 1769 -75 
Q 1072 -75 642 372 
Q 213 819 213 1659 
z
M 791 1659 
Q 791 1022 1069 705 
Q 1347 388 1769 388 
Q 2188 388 2466 706 
Q 2744 1025 2744 1678 
Q 2744 2294 2464 2611 
Q 2184 2928 1769 2928 
Q 1347 2928 1069 2612 
Q 791 2297 791 1659 
z
" transform="scale(0.015625)"/>
      <path id="ArialMT-6d" d="M 422 0 
L 422 3319 
L 925 3319 
L 925 2853 
Q 1081 3097 1340 3245 
Q 1600 3394 1931 3394 
Q 2300 3394 2536 3241 
Q 2772 3088 2869 2813 
Q 3263 3394 3894 3394 
Q 4388 3394 4653 3120 
Q 4919 2847 4919 2278 
L 4919 0 
L 4359 0 
L 4359 2091 
Q 4359 2428 4304 2576 
Q 4250 2725 4106 2815 
Q 3963 2906 3769 2906 
Q 3419 2906 3187 2673 
Q 2956 2441 2956 1928 
L 2956 0 
L 2394 0 
L 2394 2156 
Q 2394 2531 2256 2718 
Q 2119 2906 1806 2906 
Q 1569 2906 1367 2781 
Q 1166 2656 1075 2415 
Q 984 2175 984 1722 
L 984 0 
L 422 0 
z
" transform="scale(0.015625)"/>
      <path id="ArialMT-70" d="M 422 -1272 
L 422 3319 
L 934 3319 
L 934 2888 
Q 1116 3141 1344 3267 
Q 1572 3394 1897 3394 
Q 2322 3394 2647 3175 
Q 2972 2956 3137 2557 
Q 3303 2159 3303 1684 
Q 3303 1175 3120 767 
Q 2938 359 2589 142 
Q 2241 -75 1856 -75 
Q 1575 -75 1351 44 
Q 1128 163 984 344 
L 984 -1272 
L 422 -1272 
z
M 931 1641 
Q 931 1000 1190 694 
Q 1450 388 1819 388 
Q 2194 388 2461 705 
Q 2728 1022 2728 1688 
Q 2728 2322 2467 2637 
Q 2206 2953 1844 2953 
Q 1484 2953 1207 2617 
Q 931 2281 931 1641 
z
" transform="scale(0.015625)"/>
      <path id="ArialMT-76" d="M 1344 0 
L 81 3319 
L 675 3319 
L 1388 1331 
Q 1503 1009 1600 663 
Q 1675 925 1809 1294 
L 2547 3319 
L 3125 3319 
L 1869 0 
L 1344 0 
z
" transform="scale(0.015625)"/>
      <path id="ArialMT-2c" d="M 569 0 
L 569 641 
L 1209 641 
L 1209 0 
Q 1209 -353 1084 -570 
Q 959 -788 688 -906 
L 531 -666 
Q 709 -588 793 -436 
Q 878 -284 888 0 
L 569 0 
z
" transform="scale(0.015625)"/>
     </defs>
     <use xlink:href="#ArialMT-41"/>
     <use xlink:href="#ArialMT-74" transform="translate(66.699219 0)"/>
     <use xlink:href="#ArialMT-6f" transform="translate(94.482422 0)"/>
     <use xlink:href="#ArialMT-6d" transform="translate(150.097656 0)"/>
     <use xlink:href="#ArialMT-70" transform="translate(233.398438 0)"/>
     <use xlink:href="#ArialMT-6f" transform="translate(289.013672 0)"/>
     <use xlink:href="#ArialMT-73" transform="translate(344.628906 0)"/>
     <use xlink:href="#ArialMT-69" transform="translate(394.628906 0)"/>
     <use xlink:href="#ArialMT-74" transform="translate(416.845703 0)"/>
     <use xlink:href="#ArialMT-69" transform="translate(444.628906 0)"/>
     <use xlink:href="#ArialMT-6f" transform="translate(466.845703 0)"/>
     <use xlink:href="#ArialMT-6e" transform="translate(522.460938 0)"/>
     <use xlink:href="#ArialMT-65" transform="translate(578.076172 0)"/>
     <use xlink:href="#ArialMT-6e" transform="translate(633.691406 0)"/>
     <use xlink:href="#ArialMT-20" transform="translate(689.306641 0)"/>
     <use xlink:href="#ArialMT-76" transform="translate(717.089844 0)"/>
     <use xlink:href="#ArialMT-65" transform="translate(767.089844 0)"/>
     <use xlink:href="#ArialMT-72" transform="translate(822.705078 0)"/>
     <use xlink:href="#ArialMT-e4" transform="translate(856.005859 0)"/>
     <use xlink:href="#ArialMT-6e" transform="translate(911.621094 0)"/>
     <use xlink:href="#ArialMT-64" transform="translate(967.236328 0)"/>
     <use xlink:href="#ArialMT-65" transform="translate(1022.851562 0)"/>
     <use xlink:href="#ArialMT-72" transform="translate(1078.466797 0)"/>
     <use xlink:href="#ArialMT-6e" transform="translate(1111.767578 0)"/>
     <use xlink:href="#ArialMT-2c" transform="translate(1167.382812 0)"/>
    </g>
    <!-- um die Energie zu verringern -->
    <g style="fill: #192d43" transform="translate(54.595902 233.483086) scale(0.105 -0.105)">
     <defs>
      <path id="ArialMT-45" d="M 506 0 
L 506 4581 
L 3819 4581 
L 3819 4041 
L 1113 4041 
L 1113 2638 
L 3647 2638 
L 3647 2100 
L 1113 2100 
L 1113 541 
L 3925 541 
L 3925 0 
L 506 0 
z
" transform="scale(0.015625)"/>
      <path id="ArialMT-7a" d="M 125 0 
L 125 456 
L 2238 2881 
Q 1878 2863 1603 2863 
L 250 2863 
L 250 3319 
L 2963 3319 
L 2963 2947 
L 1166 841 
L 819 456 
Q 1197 484 1528 484 
L 3063 484 
L 3063 0 
L 125 0 
z
" transform="scale(0.015625)"/>
     </defs>
     <use xlink:href="#ArialMT-75"/>
     <use xlink:href="#ArialMT-6d" transform="translate(55.615234 0)"/>
     <use xlink:href="#ArialMT-20" transform="translate(138.916016 0)"/>
     <use xlink:href="#ArialMT-64" transform="translate(166.699219 0)"/>
     <use xlink:href="#ArialMT-69" transform="translate(222.314453 0)"/>
     <use xlink:href="#ArialMT-65" transform="translate(244.53125 0)"/>
     <use xlink:href="#ArialMT-20" transform="translate(300.146484 0)"/>
     <use xlink:href="#ArialMT-45" transform="translate(327.929688 0)"/>
     <use xlink:href="#ArialMT-6e" transform="translate(394.628906 0)"/>
     <use xlink:href="#ArialMT-65" transform="translate(450.244141 0)"/>
     <use xlink:href="#ArialMT-72" transform="translate(505.859375 0)"/>
     <use xlink:href="#ArialMT-67" transform="translate(539.160156 0)"/>
     <use xlink:href="#ArialMT-69" transform="translate(594.775391 0)"/>
     <use xlink:href="#ArialMT-65" transform="translate(616.992188 0)"/>
     <use xlink:href="#ArialMT-20" transform="translate(672.607422 0)"/>
     <use xlink:href="#ArialMT-7a" transform="translate(700.390625 0)"/>
     <use xlink:href="#ArialMT-75" transform="translate(750.390625 0)"/>
     <use xlink:href="#ArialMT-20" transform="translate(806.005859 0)"/>
     <use xlink:href="#ArialMT-76" transform="translate(833.789062 0)"/>
     <use xlink:href="#ArialMT-65" transform="translate(883.789062 0)"/>
     <use xlink:href="#ArialMT-72" transform="translate(939.404297 0)"/>
     <use xlink:href="#ArialMT-72" transform="translate(972.705078 0)"/>
     <use xlink:href="#ArialMT-69" transform="translate(1006.005859 0)"/>
     <use xlink:href="#ArialMT-6e" transform="translate(1028.222656 0)"/>
     <use xlink:href="#ArialMT-67" transform="translate(1083.837891 0)"/>
     <use xlink:href="#ArialMT-65" transform="translate(1139.453125 0)"/>
     <use xlink:href="#ArialMT-72" transform="translate(1195.068359 0)"/>
     <use xlink:href="#ArialMT-6e" transform="translate(1228.369141 0)"/>
    </g>
   </g>
   <g id="text_6">
    <!-- Molekülstrukturen -->
    <g style="fill: #192d43" transform="translate(67.829262 305.24364) scale(0.125 -0.125)">
     <defs>
      <path id="Arial-BoldMT-4d" d="M 453 0 
L 453 4581 
L 1838 4581 
L 2669 1456 
L 3491 4581 
L 4878 4581 
L 4878 0 
L 4019 0 
L 4019 3606 
L 3109 0 
L 2219 0 
L 1313 3606 
L 1313 0 
L 453 0 
z
" transform="scale(0.015625)"/>
      <path id="Arial-BoldMT-fc" d="M 2644 0 
L 2644 497 
Q 2463 231 2167 78 
Q 1872 -75 1544 -75 
Q 1209 -75 943 72 
Q 678 219 559 484 
Q 441 750 441 1219 
L 441 3319 
L 1319 3319 
L 1319 1794 
Q 1319 1094 1367 936 
Q 1416 778 1544 686 
Q 1672 594 1869 594 
Q 2094 594 2272 717 
Q 2450 841 2515 1023 
Q 2581 1206 2581 1919 
L 2581 3319 
L 3459 3319 
L 3459 0 
L 2644 0 
z
M 900 3906 
L 900 4659 
L 1653 4659 
L 1653 3906 
L 900 3906 
z
M 2244 3906 
L 2244 4659 
L 3000 4659 
L 3000 3906 
L 2244 3906 
z
" transform="scale(0.015625)"/>
      <path id="Arial-BoldMT-73" d="M 150 947 
L 1031 1081 
Q 1088 825 1259 692 
Q 1431 559 1741 559 
Q 2081 559 2253 684 
Q 2369 772 2369 919 
Q 2369 1019 2306 1084 
Q 2241 1147 2013 1200 
Q 950 1434 666 1628 
Q 272 1897 272 2375 
Q 272 2806 612 3100 
Q 953 3394 1669 3394 
Q 2350 3394 2681 3172 
Q 3013 2950 3138 2516 
L 2309 2363 
Q 2256 2556 2107 2659 
Q 1959 2763 1684 2763 
Q 1338 2763 1188 2666 
Q 1088 2597 1088 2488 
Q 1088 2394 1175 2328 
Q 1294 2241 1995 2081 
Q 2697 1922 2975 1691 
Q 3250 1456 3250 1038 
Q 3250 581 2869 253 
Q 2488 -75 1741 -75 
Q 1063 -75 667 200 
Q 272 475 150 947 
z
" transform="scale(0.015625)"/>
     </defs>
     <use xlink:href="#Arial-BoldMT-4d"/>
     <use xlink:href="#Arial-BoldMT-6f" transform="translate(83.300781 0)"/>
     <use xlink:href="#Arial-BoldMT-6c" transform="translate(144.384766 0)"/>
     <use xlink:href="#Arial-BoldMT-65" transform="translate(172.167969 0)"/>
     <use xlink:href="#Arial-BoldMT-6b" transform="translate(227.783203 0)"/>
     <use xlink:href="#Arial-BoldMT-fc" transform="translate(283.398438 0)"/>
     <use xlink:href="#Arial-BoldMT-6c" transform="translate(344.482422 0)"/>
     <use xlink:href="#Arial-BoldMT-73" transform="translate(372.265625 0)"/>
     <use xlink:href="#Arial-BoldMT-74" transform="translate(427.880859 0)"/>
     <use xlink:href="#Arial-BoldMT-72" transform="translate(461.181641 0)"/>
     <use xlink:href="#Arial-BoldMT-75" transform="translate(500.097656 0)"/>
     <use xlink:href="#Arial-BoldMT-6b" transform="translate(561.181641 0)"/>
     <use xlink:href="#Arial-BoldMT-74" transform="translate(616.796875 0)"/>
     <use xlink:href="#Arial-BoldMT-75" transform="translate(650.097656 0)"/>
     <use xlink:href="#Arial-BoldMT-72" transform="translate(711.181641 0)"/>
     <use xlink:href="#Arial-BoldMT-65" transform="translate(750.097656 0)"/>
     <use xlink:href="#Arial-BoldMT-6e" transform="translate(805.712891 0)"/>
    </g>
   </g>
   <g id="text_7">
    <!-- Bindungslängen und Winkel -->
    <g style="fill: #192d43" transform="translate(56.917387 325.539951) scale(0.105 -0.105)">
     <defs>
      <path id="ArialMT-42" d="M 469 0 
L 469 4581 
L 2188 4581 
Q 2713 4581 3030 4442 
Q 3347 4303 3526 4014 
Q 3706 3725 3706 3409 
Q 3706 3116 3547 2856 
Q 3388 2597 3066 2438 
Q 3481 2316 3704 2022 
Q 3928 1728 3928 1328 
Q 3928 1006 3792 729 
Q 3656 453 3456 303 
Q 3256 153 2954 76 
Q 2653 0 2216 0 
L 469 0 
z
M 1075 2656 
L 2066 2656 
Q 2469 2656 2644 2709 
Q 2875 2778 2992 2937 
Q 3109 3097 3109 3338 
Q 3109 3566 3000 3739 
Q 2891 3913 2687 3977 
Q 2484 4041 1991 4041 
L 1075 4041 
L 1075 2656 
z
M 1075 541 
L 2216 541 
Q 2509 541 2628 563 
Q 2838 600 2978 687 
Q 3119 775 3209 942 
Q 3300 1109 3300 1328 
Q 3300 1584 3169 1773 
Q 3038 1963 2805 2039 
Q 2572 2116 2134 2116 
L 1075 2116 
L 1075 541 
z
" transform="scale(0.015625)"/>
     </defs>
     <use xlink:href="#ArialMT-42"/>
     <use xlink:href="#ArialMT-69" transform="translate(66.699219 0)"/>
     <use xlink:href="#ArialMT-6e" transform="translate(88.916016 0)"/>
     <use xlink:href="#ArialMT-64" transform="translate(144.53125 0)"/>
     <use xlink:href="#ArialMT-75" transform="translate(200.146484 0)"/>
     <use xlink:href="#ArialMT-6e" transform="translate(255.761719 0)"/>
     <use xlink:href="#ArialMT-67" transform="translate(311.376953 0)"/>
     <use xlink:href="#ArialMT-73" transform="translate(366.992188 0)"/>
     <use xlink:href="#ArialMT-6c" transform="translate(416.992188 0)"/>
     <use xlink:href="#ArialMT-e4" transform="translate(439.208984 0)"/>
     <use xlink:href="#ArialMT-6e" transform="translate(494.824219 0)"/>
     <use xlink:href="#ArialMT-67" transform="translate(550.439453 0)"/>
     <use xlink:href="#ArialMT-65" transform="translate(606.054688 0)"/>
     <use xlink:href="#ArialMT-6e" transform="translate(661.669922 0)"/>
     <use xlink:href="#ArialMT-20" transform="translate(717.285156 0)"/>
     <use xlink:href="#ArialMT-75" transform="translate(745.068359 0)"/>
     <use xlink:href="#ArialMT-6e" transform="translate(800.683594 0)"/>
     <use xlink:href="#ArialMT-64" transform="translate(856.298828 0)"/>
     <use xlink:href="#ArialMT-20" transform="translate(911.914062 0)"/>
     <use xlink:href="#ArialMT-57" transform="translate(939.697266 0)"/>
     <use xlink:href="#ArialMT-69" transform="translate(1034.082031 0)"/>
     <use xlink:href="#ArialMT-6e" transform="translate(1056.298828 0)"/>
     <use xlink:href="#ArialMT-6b" transform="translate(1111.914062 0)"/>
     <use xlink:href="#ArialMT-65" transform="translate(1161.914062 0)"/>
     <use xlink:href="#ArialMT-6c" transform="translate(1217.529297 0)"/>
    </g>
   </g>
   <g id="text_8">
    <!-- Energien vergleichen -->
    <g style="fill: #192d43" transform="translate(296.787109 194.283902) scale(0.125 -0.125)">
     <defs>
      <path id="Arial-BoldMT-76" d="M 1372 0 
L 34 3319 
L 956 3319 
L 1581 1625 
L 1763 1059 
Q 1834 1275 1853 1344 
Q 1897 1484 1947 1625 
L 2578 3319 
L 3481 3319 
L 2163 0 
L 1372 0 
z
" transform="scale(0.015625)"/>
     </defs>
     <use xlink:href="#Arial-BoldMT-45"/>
     <use xlink:href="#Arial-BoldMT-6e" transform="translate(66.699219 0)"/>
     <use xlink:href="#Arial-BoldMT-65" transform="translate(127.783203 0)"/>
     <use xlink:href="#Arial-BoldMT-72" transform="translate(183.398438 0)"/>
     <use xlink:href="#Arial-BoldMT-67" transform="translate(222.314453 0)"/>
     <use xlink:href="#Arial-BoldMT-69" transform="translate(283.398438 0)"/>
     <use xlink:href="#Arial-BoldMT-65" transform="translate(311.181641 0)"/>
     <use xlink:href="#Arial-BoldMT-6e" transform="translate(366.796875 0)"/>
     <use xlink:href="#Arial-BoldMT-20" transform="translate(427.880859 0)"/>
     <use xlink:href="#Arial-BoldMT-76" transform="translate(455.664062 0)"/>
     <use xlink:href="#Arial-BoldMT-65" transform="translate(511.279297 0)"/>
     <use xlink:href="#Arial-BoldMT-72" transform="translate(566.894531 0)"/>
     <use xlink:href="#Arial-BoldMT-67" transform="translate(605.810547 0)"/>
     <use xlink:href="#Arial-BoldMT-6c" transform="translate(666.894531 0)"/>
     <use xlink:href="#Arial-BoldMT-65" transform="translate(694.677734 0)"/>
     <use xlink:href="#Arial-BoldMT-69" transform="translate(750.292969 0)"/>
     <use xlink:href="#Arial-BoldMT-63" transform="translate(778.076172 0)"/>
     <use xlink:href="#Arial-BoldMT-68" transform="translate(833.691406 0)"/>
     <use xlink:href="#Arial-BoldMT-65" transform="translate(894.775391 0)"/>
     <use xlink:href="#Arial-BoldMT-6e" transform="translate(950.390625 0)"/>
    </g>
   </g>
   <g id="text_9">
    <!-- Energien für verschiedene -->
    <g style="fill: #192d43" transform="translate(298.716914 220.915242) scale(0.105 -0.105)">
     <defs>
      <path id="ArialMT-66" d="M 556 0 
L 556 2881 
L 59 2881 
L 59 3319 
L 556 3319 
L 556 3672 
Q 556 4006 616 4169 
Q 697 4388 901 4523 
Q 1106 4659 1475 4659 
Q 1713 4659 2000 4603 
L 1916 4113 
Q 1741 4144 1584 4144 
Q 1328 4144 1222 4034 
Q 1116 3925 1116 3625 
L 1116 3319 
L 1763 3319 
L 1763 2881 
L 1116 2881 
L 1116 0 
L 556 0 
z
" transform="scale(0.015625)"/>
      <path id="ArialMT-fc" d="M 2597 0 
L 2597 488 
Q 2209 -75 1544 -75 
Q 1250 -75 995 37 
Q 741 150 617 320 
Q 494 491 444 738 
Q 409 903 409 1263 
L 409 3319 
L 972 3319 
L 972 1478 
Q 972 1038 1006 884 
Q 1059 663 1231 536 
Q 1403 409 1656 409 
Q 1909 409 2131 539 
Q 2353 669 2445 892 
Q 2538 1116 2538 1541 
L 2538 3319 
L 3100 3319 
L 3100 0 
L 2597 0 
z
M 878 3969 
L 878 4609 
L 1466 4609 
L 1466 3969 
L 878 3969 
z
M 2044 3969 
L 2044 4609 
L 2631 4609 
L 2631 3969 
L 2044 3969 
z
" transform="scale(0.015625)"/>
     </defs>
     <use xlink:href="#ArialMT-45"/>
     <use xlink:href="#ArialMT-6e" transform="translate(66.699219 0)"/>
     <use xlink:href="#ArialMT-65" transform="translate(122.314453 0)"/>
     <use xlink:href="#ArialMT-72" transform="translate(177.929688 0)"/>
     <use xlink:href="#ArialMT-67" transform="translate(211.230469 0)"/>
     <use xlink:href="#ArialMT-69" transform="translate(266.845703 0)"/>
     <use xlink:href="#ArialMT-65" transform="translate(289.0625 0)"/>
     <use xlink:href="#ArialMT-6e" transform="translate(344.677734 0)"/>
     <use xlink:href="#ArialMT-20" transform="translate(400.292969 0)"/>
     <use xlink:href="#ArialMT-66" transform="translate(428.076172 0)"/>
     <use xlink:href="#ArialMT-fc" transform="translate(455.859375 0)"/>
     <use xlink:href="#ArialMT-72" transform="translate(511.474609 0)"/>
     <use xlink:href="#ArialMT-20" transform="translate(544.775391 0)"/>
     <use xlink:href="#ArialMT-76" transform="translate(572.558594 0)"/>
     <use xlink:href="#ArialMT-65" transform="translate(622.558594 0)"/>
     <use xlink:href="#ArialMT-72" transform="translate(678.173828 0)"/>
     <use xlink:href="#ArialMT-73" transform="translate(711.474609 0)"/>
     <use xlink:href="#ArialMT-63" transform="translate(761.474609 0)"/>
     <use xlink:href="#ArialMT-68" transform="translate(811.474609 0)"/>
     <use xlink:href="#ArialMT-69" transform="translate(867.089844 0)"/>
     <use xlink:href="#ArialMT-65" transform="translate(889.306641 0)"/>
     <use xlink:href="#ArialMT-64" transform="translate(944.921875 0)"/>
     <use xlink:href="#ArialMT-65" transform="translate(1000.537109 0)"/>
     <use xlink:href="#ArialMT-6e" transform="translate(1056.152344 0)"/>
     <use xlink:href="#ArialMT-65" transform="translate(1111.767578 0)"/>
    </g>
    <!-- Strukturen berechnen -->
    <g style="fill: #192d43" transform="translate(309.513867 233.647148) scale(0.105 -0.105)">
     <defs>
      <path id="ArialMT-53" d="M 288 1472 
L 859 1522 
Q 900 1178 1048 958 
Q 1197 738 1509 602 
Q 1822 466 2213 466 
Q 2559 466 2825 569 
Q 3091 672 3220 851 
Q 3350 1031 3350 1244 
Q 3350 1459 3225 1620 
Q 3100 1781 2813 1891 
Q 2628 1963 1997 2114 
Q 1366 2266 1113 2400 
Q 784 2572 623 2826 
Q 463 3081 463 3397 
Q 463 3744 659 4045 
Q 856 4347 1234 4503 
Q 1613 4659 2075 4659 
Q 2584 4659 2973 4495 
Q 3363 4331 3572 4012 
Q 3781 3694 3797 3291 
L 3216 3247 
Q 3169 3681 2898 3903 
Q 2628 4125 2100 4125 
Q 1550 4125 1298 3923 
Q 1047 3722 1047 3438 
Q 1047 3191 1225 3031 
Q 1400 2872 2139 2705 
Q 2878 2538 3153 2413 
Q 3553 2228 3743 1945 
Q 3934 1663 3934 1294 
Q 3934 928 3725 604 
Q 3516 281 3123 101 
Q 2731 -78 2241 -78 
Q 1619 -78 1198 103 
Q 778 284 539 648 
Q 300 1013 288 1472 
z
" transform="scale(0.015625)"/>
     </defs>
     <use xlink:href="#ArialMT-53"/>
     <use xlink:href="#ArialMT-74" transform="translate(66.699219 0)"/>
     <use xlink:href="#ArialMT-72" transform="translate(94.482422 0)"/>
     <use xlink:href="#ArialMT-75" transform="translate(127.783203 0)"/>
     <use xlink:href="#ArialMT-6b" transform="translate(183.398438 0)"/>
     <use xlink:href="#ArialMT-74" transform="translate(233.398438 0)"/>
     <use xlink:href="#ArialMT-75" transform="translate(261.181641 0)"/>
     <use xlink:href="#ArialMT-72" transform="translate(316.796875 0)"/>
     <use xlink:href="#ArialMT-65" transform="translate(350.097656 0)"/>
     <use xlink:href="#ArialMT-6e" transform="translate(405.712891 0)"/>
     <use xlink:href="#ArialMT-20" transform="translate(461.328125 0)"/>
     <use xlink:href="#ArialMT-62" transform="translate(489.111328 0)"/>
     <use xlink:href="#ArialMT-65" transform="translate(544.726562 0)"/>
     <use xlink:href="#ArialMT-72" transform="translate(600.341797 0)"/>
     <use xlink:href="#ArialMT-65" transform="translate(633.642578 0)"/>
     <use xlink:href="#ArialMT-63" transform="translate(689.257812 0)"/>
     <use xlink:href="#ArialMT-68" transform="translate(739.257812 0)"/>
     <use xlink:href="#ArialMT-6e" transform="translate(794.873047 0)"/>
     <use xlink:href="#ArialMT-65" transform="translate(850.488281 0)"/>
     <use xlink:href="#ArialMT-6e" transform="translate(906.103516 0)"/>
    </g>
   </g>
   <g id="text_10">
    <!-- Energieunterschiede -->
    <g style="fill: #192d43" transform="translate(298.178711 305.161609) scale(0.125 -0.125)">
     <use xlink:href="#Arial-BoldMT-45"/>
     <use xlink:href="#Arial-BoldMT-6e" transform="translate(66.699219 0)"/>
     <use xlink:href="#Arial-BoldMT-65" transform="translate(127.783203 0)"/>
     <use xlink:href="#Arial-BoldMT-72" transform="translate(183.398438 0)"/>
     <use xlink:href="#Arial-BoldMT-67" transform="translate(222.314453 0)"/>
     <use xlink:href="#Arial-BoldMT-69" transform="translate(283.398438 0)"/>
     <use xlink:href="#Arial-BoldMT-65" transform="translate(311.181641 0)"/>
     <use xlink:href="#Arial-BoldMT-75" transform="translate(366.796875 0)"/>
     <use xlink:href="#Arial-BoldMT-6e" transform="translate(427.880859 0)"/>
     <use xlink:href="#Arial-BoldMT-74" transform="translate(488.964844 0)"/>
     <use xlink:href="#Arial-BoldMT-65" transform="translate(522.265625 0)"/>
     <use xlink:href="#Arial-BoldMT-72" transform="translate(577.880859 0)"/>
     <use xlink:href="#Arial-BoldMT-73" transform="translate(616.796875 0)"/>
     <use xlink:href="#Arial-BoldMT-63" transform="translate(672.412109 0)"/>
     <use xlink:href="#Arial-BoldMT-68" transform="translate(728.027344 0)"/>
     <use xlink:href="#Arial-BoldMT-69" transform="translate(789.111328 0)"/>
     <use xlink:href="#Arial-BoldMT-65" transform="translate(816.894531 0)"/>
     <use xlink:href="#Arial-BoldMT-64" transform="translate(872.509766 0)"/>
     <use xlink:href="#Arial-BoldMT-65" transform="translate(933.59375 0)"/>
    </g>
   </g>
   <g id="text_11">
    <!-- z. B. zwischen cis und trans -->
    <g style="fill: #192d43" transform="translate(295.226484 325.578506) scale(0.105 -0.105)">
     <defs>
      <path id="ArialMT-61" d="M 2588 409 
Q 2275 144 1986 34 
Q 1697 -75 1366 -75 
Q 819 -75 525 192 
Q 231 459 231 875 
Q 231 1119 342 1320 
Q 453 1522 633 1644 
Q 813 1766 1038 1828 
Q 1203 1872 1538 1913 
Q 2219 1994 2541 2106 
Q 2544 2222 2544 2253 
Q 2544 2597 2384 2738 
Q 2169 2928 1744 2928 
Q 1347 2928 1158 2789 
Q 969 2650 878 2297 
L 328 2372 
Q 403 2725 575 2942 
Q 747 3159 1072 3276 
Q 1397 3394 1825 3394 
Q 2250 3394 2515 3294 
Q 2781 3194 2906 3042 
Q 3031 2891 3081 2659 
Q 3109 2516 3109 2141 
L 3109 1391 
Q 3109 606 3145 398 
Q 3181 191 3288 0 
L 2700 0 
Q 2613 175 2588 409 
z
M 2541 1666 
Q 2234 1541 1622 1453 
Q 1275 1403 1131 1340 
Q 988 1278 909 1158 
Q 831 1038 831 891 
Q 831 666 1001 516 
Q 1172 366 1500 366 
Q 1825 366 2078 508 
Q 2331 650 2450 897 
Q 2541 1088 2541 1459 
L 2541 1666 
z
" transform="scale(0.015625)"/>
     </defs>
     <use xlink:href="#ArialMT-7a"/>
     <use xlink:href="#ArialMT-2e" transform="translate(50 0)"/>
     <use xlink:href="#ArialMT-20" transform="translate(77.783203 0)"/>
     <use xlink:href="#ArialMT-42" transform="translate(105.566406 0)"/>
     <use xlink:href="#ArialMT-2e" transform="translate(172.265625 0)"/>
     <use xlink:href="#ArialMT-20" transform="translate(200.048828 0)"/>
     <use xlink:href="#ArialMT-7a" transform="translate(227.832031 0)"/>
     <use xlink:href="#ArialMT-77" transform="translate(277.832031 0)"/>
     <use xlink:href="#ArialMT-69" transform="translate(350.048828 0)"/>
     <use xlink:href="#ArialMT-73" transform="translate(372.265625 0)"/>
     <use xlink:href="#ArialMT-63" transform="translate(422.265625 0)"/>
     <use xlink:href="#ArialMT-68" transform="translate(472.265625 0)"/>
     <use xlink:href="#ArialMT-65" transform="translate(527.880859 0)"/>
     <use xlink:href="#ArialMT-6e" transform="translate(583.496094 0)"/>
     <use xlink:href="#ArialMT-20" transform="translate(639.111328 0)"/>
     <use xlink:href="#ArialMT-63" transform="translate(666.894531 0)"/>
     <use xlink:href="#ArialMT-69" transform="translate(716.894531 0)"/>
     <use xlink:href="#ArialMT-73" transform="translate(739.111328 0)"/>
     <use xlink:href="#ArialMT-20" transform="translate(789.111328 0)"/>
     <use xlink:href="#ArialMT-75" transform="translate(816.894531 0)"/>
     <use xlink:href="#ArialMT-6e" transform="translate(872.509766 0)"/>
     <use xlink:href="#ArialMT-64" transform="translate(928.125 0)"/>
     <use xlink:href="#ArialMT-20" transform="translate(983.740234 0)"/>
     <use xlink:href="#ArialMT-74" transform="translate(1011.523438 0)"/>
     <use xlink:href="#ArialMT-72" transform="translate(1039.306641 0)"/>
     <use xlink:href="#ArialMT-61" transform="translate(1072.607422 0)"/>
     <use xlink:href="#ArialMT-6e" transform="translate(1128.222656 0)"/>
     <use xlink:href="#ArialMT-73" transform="translate(1183.837891 0)"/>
    </g>
   </g>
   <g id="text_12">
    <!-- Anregungen berechnen -->
    <g style="fill: #192d43" transform="translate(527.857262 194.283902) scale(0.125 -0.125)">
     <defs>
      <path id="Arial-BoldMT-62" d="M 422 0 
L 422 4581 
L 1300 4581 
L 1300 2931 
Q 1706 3394 2263 3394 
Q 2869 3394 3266 2955 
Q 3663 2516 3663 1694 
Q 3663 844 3258 384 
Q 2853 -75 2275 -75 
Q 1991 -75 1714 67 
Q 1438 209 1238 488 
L 1238 0 
L 422 0 
z
M 1294 1731 
Q 1294 1216 1456 969 
Q 1684 619 2063 619 
Q 2353 619 2558 867 
Q 2763 1116 2763 1650 
Q 2763 2219 2556 2470 
Q 2350 2722 2028 2722 
Q 1713 2722 1503 2476 
Q 1294 2231 1294 1731 
z
" transform="scale(0.015625)"/>
     </defs>
     <use xlink:href="#Arial-BoldMT-41"/>
     <use xlink:href="#Arial-BoldMT-6e" transform="translate(72.216797 0)"/>
     <use xlink:href="#Arial-BoldMT-72" transform="translate(133.300781 0)"/>
     <use xlink:href="#Arial-BoldMT-65" transform="translate(172.216797 0)"/>
     <use xlink:href="#Arial-BoldMT-67" transform="translate(227.832031 0)"/>
     <use xlink:href="#Arial-BoldMT-75" transform="translate(288.916016 0)"/>
     <use xlink:href="#Arial-BoldMT-6e" transform="translate(350 0)"/>
     <use xlink:href="#Arial-BoldMT-67" transform="translate(411.083984 0)"/>
     <use xlink:href="#Arial-BoldMT-65" transform="translate(472.167969 0)"/>
     <use xlink:href="#Arial-BoldMT-6e" transform="translate(527.783203 0)"/>
     <use xlink:href="#Arial-BoldMT-20" transform="translate(588.867188 0)"/>
     <use xlink:href="#Arial-BoldMT-62" transform="translate(616.650391 0)"/>
     <use xlink:href="#Arial-BoldMT-65" transform="translate(677.734375 0)"/>
     <use xlink:href="#Arial-BoldMT-72" transform="translate(733.349609 0)"/>
     <use xlink:href="#Arial-BoldMT-65" transform="translate(772.265625 0)"/>
     <use xlink:href="#Arial-BoldMT-63" transform="translate(827.880859 0)"/>
     <use xlink:href="#Arial-BoldMT-68" transform="translate(883.496094 0)"/>
     <use xlink:href="#Arial-BoldMT-6e" transform="translate(944.580078 0)"/>
     <use xlink:href="#Arial-BoldMT-65" transform="translate(1005.664062 0)"/>
     <use xlink:href="#Arial-BoldMT-6e" transform="translate(1061.279297 0)"/>
    </g>
   </g>
   <g id="text_13">
    <!-- Energien und Stärken -->
    <g style="fill: #192d43" transform="translate(547.218395 220.853719) scale(0.105 -0.105)">
     <use xlink:href="#ArialMT-45"/>
     <use xlink:href="#ArialMT-6e" transform="translate(66.699219 0)"/>
     <use xlink:href="#ArialMT-65" transform="translate(122.314453 0)"/>
     <use xlink:href="#ArialMT-72" transform="translate(177.929688 0)"/>
     <use xlink:href="#ArialMT-67" transform="translate(211.230469 0)"/>
     <use xlink:href="#ArialMT-69" transform="translate(266.845703 0)"/>
     <use xlink:href="#ArialMT-65" transform="translate(289.0625 0)"/>
     <use xlink:href="#ArialMT-6e" transform="translate(344.677734 0)"/>
     <use xlink:href="#ArialMT-20" transform="translate(400.292969 0)"/>
     <use xlink:href="#ArialMT-75" transform="translate(428.076172 0)"/>
     <use xlink:href="#ArialMT-6e" transform="translate(483.691406 0)"/>
     <use xlink:href="#ArialMT-64" transform="translate(539.306641 0)"/>
     <use xlink:href="#ArialMT-20" transform="translate(594.921875 0)"/>
     <use xlink:href="#ArialMT-53" transform="translate(622.705078 0)"/>
     <use xlink:href="#ArialMT-74" transform="translate(689.404297 0)"/>
     <use xlink:href="#ArialMT-e4" transform="translate(717.1875 0)"/>
     <use xlink:href="#ArialMT-72" transform="translate(772.802734 0)"/>
     <use xlink:href="#ArialMT-6b" transform="translate(806.103516 0)"/>
     <use xlink:href="#ArialMT-65" transform="translate(856.103516 0)"/>
     <use xlink:href="#ArialMT-6e" transform="translate(911.71875 0)"/>
    </g>
    <!-- elektronischer Anregungen bestimmen -->
    <g style="fill: #192d43" transform="translate(508.411871 233.585625) scale(0.105 -0.105)">
     <use xlink:href="#ArialMT-65"/>
     <use xlink:href="#ArialMT-6c" transform="translate(55.615234 0)"/>
     <use xlink:href="#ArialMT-65" transform="translate(77.832031 0)"/>
     <use xlink:href="#ArialMT-6b" transform="translate(133.447266 0)"/>
     <use xlink:href="#ArialMT-74" transform="translate(183.447266 0)"/>
     <use xlink:href="#ArialMT-72" transform="translate(211.230469 0)"/>
     <use xlink:href="#ArialMT-6f" transform="translate(244.53125 0)"/>
     <use xlink:href="#ArialMT-6e" transform="translate(300.146484 0)"/>
     <use xlink:href="#ArialMT-69" transform="translate(355.761719 0)"/>
     <use xlink:href="#ArialMT-73" transform="translate(377.978516 0)"/>
     <use xlink:href="#ArialMT-63" transform="translate(427.978516 0)"/>
     <use xlink:href="#ArialMT-68" transform="translate(477.978516 0)"/>
     <use xlink:href="#ArialMT-65" transform="translate(533.59375 0)"/>
     <use xlink:href="#ArialMT-72" transform="translate(589.208984 0)"/>
     <use xlink:href="#ArialMT-20" transform="translate(622.509766 0)"/>
     <use xlink:href="#ArialMT-41" transform="translate(644.792969 0)"/>
     <use xlink:href="#ArialMT-6e" transform="translate(711.492188 0)"/>
     <use xlink:href="#ArialMT-72" transform="translate(767.107422 0)"/>
     <use xlink:href="#ArialMT-65" transform="translate(800.408203 0)"/>
     <use xlink:href="#ArialMT-67" transform="translate(856.023438 0)"/>
     <use xlink:href="#ArialMT-75" transform="translate(911.638672 0)"/>
     <use xlink:href="#ArialMT-6e" transform="translate(967.253906 0)"/>
     <use xlink:href="#ArialMT-67" transform="translate(1022.869141 0)"/>
     <use xlink:href="#ArialMT-65" transform="translate(1078.484375 0)"/>
     <use xlink:href="#ArialMT-6e" transform="translate(1134.099609 0)"/>
     <use xlink:href="#ArialMT-20" transform="translate(1189.714844 0)"/>
     <use xlink:href="#ArialMT-62" transform="translate(1217.498047 0)"/>
     <use xlink:href="#ArialMT-65" transform="translate(1273.113281 0)"/>
     <use xlink:href="#ArialMT-73" transform="translate(1328.728516 0)"/>
     <use xlink:href="#ArialMT-74" transform="translate(1378.728516 0)"/>
     <use xlink:href="#ArialMT-69" transform="translate(1406.511719 0)"/>
     <use xlink:href="#ArialMT-6d" transform="translate(1428.728516 0)"/>
     <use xlink:href="#ArialMT-6d" transform="translate(1512.029297 0)"/>
     <use xlink:href="#ArialMT-65" transform="translate(1595.330078 0)"/>
     <use xlink:href="#ArialMT-6e" transform="translate(1650.945312 0)"/>
    </g>
   </g>
   <g id="text_14">
    <!-- Absorptionsspektren -->
    <g style="fill: #192d43" transform="translate(535.147301 305.24364) scale(0.125 -0.125)">
     <use xlink:href="#Arial-BoldMT-41"/>
     <use xlink:href="#Arial-BoldMT-62" transform="translate(72.216797 0)"/>
     <use xlink:href="#Arial-BoldMT-73" transform="translate(133.300781 0)"/>
     <use xlink:href="#Arial-BoldMT-6f" transform="translate(188.916016 0)"/>
     <use xlink:href="#Arial-BoldMT-72" transform="translate(250 0)"/>
     <use xlink:href="#Arial-BoldMT-70" transform="translate(288.916016 0)"/>
     <use xlink:href="#Arial-BoldMT-74" transform="translate(350 0)"/>
     <use xlink:href="#Arial-BoldMT-69" transform="translate(383.300781 0)"/>
     <use xlink:href="#Arial-BoldMT-6f" transform="translate(411.083984 0)"/>
     <use xlink:href="#Arial-BoldMT-6e" transform="translate(472.167969 0)"/>
     <use xlink:href="#Arial-BoldMT-73" transform="translate(533.251953 0)"/>
     <use xlink:href="#Arial-BoldMT-73" transform="translate(588.867188 0)"/>
     <use xlink:href="#Arial-BoldMT-70" transform="translate(644.482422 0)"/>
     <use xlink:href="#Arial-BoldMT-65" transform="translate(705.566406 0)"/>
     <use xlink:href="#Arial-BoldMT-6b" transform="translate(761.181641 0)"/>
     <use xlink:href="#Arial-BoldMT-74" transform="translate(816.796875 0)"/>
     <use xlink:href="#Arial-BoldMT-72" transform="translate(850.097656 0)"/>
     <use xlink:href="#Arial-BoldMT-65" transform="translate(889.013672 0)"/>
     <use xlink:href="#Arial-BoldMT-6e" transform="translate(944.628906 0)"/>
    </g>
   </g>
   <g id="text_15">
    <!-- Lage und relative Stärke der Banden -->
    <g style="fill: #192d43" transform="translate(512.488824 325.580967) scale(0.105 -0.105)">
     <defs>
      <path id="ArialMT-4c" d="M 469 0 
L 469 4581 
L 1075 4581 
L 1075 541 
L 3331 541 
L 3331 0 
L 469 0 
z
" transform="scale(0.015625)"/>
     </defs>
     <use xlink:href="#ArialMT-4c"/>
     <use xlink:href="#ArialMT-61" transform="translate(55.615234 0)"/>
     <use xlink:href="#ArialMT-67" transform="translate(111.230469 0)"/>
     <use xlink:href="#ArialMT-65" transform="translate(166.845703 0)"/>
     <use xlink:href="#ArialMT-20" transform="translate(222.460938 0)"/>
     <use xlink:href="#ArialMT-75" transform="translate(250.244141 0)"/>
     <use xlink:href="#ArialMT-6e" transform="translate(305.859375 0)"/>
     <use xlink:href="#ArialMT-64" transform="translate(361.474609 0)"/>
     <use xlink:href="#ArialMT-20" transform="translate(417.089844 0)"/>
     <use xlink:href="#ArialMT-72" transform="translate(444.873047 0)"/>
     <use xlink:href="#ArialMT-65" transform="translate(478.173828 0)"/>
     <use xlink:href="#ArialMT-6c" transform="translate(533.789062 0)"/>
     <use xlink:href="#ArialMT-61" transform="translate(556.005859 0)"/>
     <use xlink:href="#ArialMT-74" transform="translate(611.621094 0)"/>
     <use xlink:href="#ArialMT-69" transform="translate(639.404297 0)"/>
     <use xlink:href="#ArialMT-76" transform="translate(661.621094 0)"/>
     <use xlink:href="#ArialMT-65" transform="translate(711.621094 0)"/>
     <use xlink:href="#ArialMT-20" transform="translate(767.236328 0)"/>
     <use xlink:href="#ArialMT-53" transform="translate(795.019531 0)"/>
     <use xlink:href="#ArialMT-74" transform="translate(861.71875 0)"/>
     <use xlink:href="#ArialMT-e4" transform="translate(889.501953 0)"/>
     <use xlink:href="#ArialMT-72" transform="translate(945.117188 0)"/>
     <use xlink:href="#ArialMT-6b" transform="translate(978.417969 0)"/>
     <use xlink:href="#ArialMT-65" transform="translate(1028.417969 0)"/>
     <use xlink:href="#ArialMT-20" transform="translate(1084.033203 0)"/>
     <use xlink:href="#ArialMT-64" transform="translate(1111.816406 0)"/>
     <use xlink:href="#ArialMT-65" transform="translate(1167.431641 0)"/>
     <use xlink:href="#ArialMT-72" transform="translate(1223.046875 0)"/>
     <use xlink:href="#ArialMT-20" transform="translate(1256.347656 0)"/>
     <use xlink:href="#ArialMT-42" transform="translate(1284.130859 0)"/>
     <use xlink:href="#ArialMT-61" transform="translate(1350.830078 0)"/>
     <use xlink:href="#ArialMT-6e" transform="translate(1406.445312 0)"/>
     <use xlink:href="#ArialMT-64" transform="translate(1462.060547 0)"/>
     <use xlink:href="#ArialMT-65" transform="translate(1517.675781 0)"/>
     <use xlink:href="#ArialMT-6e" transform="translate(1573.291016 0)"/>
    </g>
   </g>
  </g>
 </g>
 <defs>
  <clipPath id="p4c5f71aa82">
   <rect x="3.00024" y="3.00024" width="713.99952" height="353.99952"/>
  </clipPath>
 </defs>
</svg>
